<svg id="Layer_1" data-name="Layer 1" xmlns="http://www.w3.org/2000/svg" viewBox="0 0 500 500"><defs><style>.cls-1{fill:none;}.cls-2{fill:#231f20;}</style></defs><polygon class="cls-1" points="348.81 287.31 348.81 266.74 331 256.46 313.19 266.74 313.19 287.31 331 297.59 348.81 287.31"/><polygon class="cls-1" points="369.87 323.33 369.87 302.76 352.06 292.48 334.26 302.76 334.26 323.33 352.06 333.61 369.87 323.33"/><polygon class="cls-1" points="411.56 323.33 411.56 302.76 393.75 292.48 375.94 302.76 375.94 323.33 393.75 333.61 411.56 323.33"/><polygon class="cls-1" points="390.72 287.31 390.72 266.74 372.91 256.46 355.1 266.74 355.1 287.31 372.91 297.59 390.72 287.31"/><polygon class="cls-1" points="328.42 323.33 328.42 302.76 310.61 292.48 292.8 302.76 292.8 323.33 310.61 333.61 328.42 323.33"/><polygon class="cls-1" points="286.74 323.33 286.74 302.76 268.93 292.48 251.12 302.76 251.12 323.33 268.93 333.61 286.74 323.33"/><polygon class="cls-1" points="307.58 287.31 307.58 266.74 289.77 256.46 271.96 266.74 271.96 287.31 289.77 297.59 307.58 287.31"/><polygon class="cls-1" points="375.94 87.15 375.94 107.72 393.75 118 411.56 107.72 411.56 87.15 393.75 76.87 375.94 87.15"/><polygon class="cls-1" points="396.41 123 396.41 143.56 414.22 153.85 432.03 143.56 432.03 123 414.22 112.72 396.41 123"/><polygon class="cls-1" points="417.63 87.15 417.63 107.72 435.44 118 453.25 107.72 453.25 87.15 435.44 76.87 417.63 87.15"/><polygon class="cls-1" points="432.03 287.31 432.03 266.74 414.22 256.46 396.41 266.74 396.41 287.31 414.22 297.59 432.03 287.31"/><polygon class="cls-1" points="265.59 287.31 265.59 266.74 247.78 256.46 229.97 266.74 229.97 287.31 247.78 297.59 265.59 287.31"/><polygon class="cls-1" points="453.25 323.33 453.25 302.76 435.44 292.48 417.63 302.76 417.63 323.33 435.44 333.61 453.25 323.33"/><polygon class="cls-1" points="417.63 230.89 417.63 251.46 435.44 261.74 453.25 251.46 453.25 230.89 435.44 220.61 417.63 230.89"/><polygon class="cls-1" points="417.63 159.02 417.63 179.59 435.44 189.87 453.25 179.59 453.25 159.02 435.44 148.74 417.63 159.02"/><polygon class="cls-1" points="182.37 287.31 182.37 266.74 164.56 256.46 146.75 266.74 146.75 287.31 164.56 297.59 182.37 287.31"/><polygon class="cls-1" points="84.37 230.89 84.37 251.46 102.18 261.74 119.99 251.46 119.99 230.89 102.18 220.61 84.37 230.89"/><polygon class="cls-1" points="84.37 159.02 84.37 179.59 102.18 189.87 119.99 179.59 119.99 159.02 102.18 148.74 84.37 159.02"/><polygon class="cls-1" points="105.22 194.87 105.22 215.43 123.02 225.72 140.83 215.43 140.83 194.87 123.02 184.59 105.22 194.87"/><polygon class="cls-1" points="63.53 194.87 63.53 215.43 81.34 225.72 99.15 215.43 99.15 194.87 81.34 184.59 63.53 194.87"/><polygon class="cls-1" points="146.75 194.87 146.75 215.43 164.56 225.72 182.37 215.43 182.37 194.87 164.56 184.59 146.75 194.87"/><polygon class="cls-1" points="126.06 159.02 126.06 179.59 143.87 189.87 161.68 179.59 161.68 159.02 143.87 148.74 126.06 159.02"/><polygon class="cls-1" points="126.06 230.89 126.06 251.46 143.87 261.74 161.68 251.46 161.68 230.89 143.87 220.61 126.06 230.89"/><polygon class="cls-1" points="140.83 287.31 140.83 266.74 123.02 256.46 105.22 266.74 105.22 287.31 123.02 297.59 140.83 287.31"/><polygon class="cls-1" points="99.15 287.31 99.15 266.74 81.34 256.46 63.53 266.74 63.53 287.31 81.34 297.59 99.15 287.31"/><polygon class="cls-1" points="224.21 287.31 224.21 266.74 206.4 256.46 188.59 266.74 188.59 287.31 206.4 297.59 224.21 287.31"/><polygon class="cls-1" points="355.1 123 355.1 143.56 372.91 153.85 390.72 143.56 390.72 123 372.91 112.72 355.1 123"/><polygon class="cls-1" points="203.36 323.33 203.36 302.76 185.55 292.48 167.74 302.76 167.74 323.33 185.55 333.61 203.36 323.33"/><polygon class="cls-1" points="161.68 323.33 161.68 302.76 143.87 292.48 126.06 302.76 126.06 323.33 143.87 333.61 161.68 323.33"/><polygon class="cls-1" points="119.99 323.33 119.99 302.76 102.18 292.48 84.37 302.76 84.37 323.33 102.18 333.61 119.99 323.33"/><polygon class="cls-1" points="245.05 323.33 245.05 302.76 227.24 292.48 209.43 302.76 209.43 323.33 227.24 333.61 245.05 323.33"/><polygon class="cls-1" points="84.37 87.15 84.37 107.72 102.18 118 119.99 107.72 119.99 87.15 102.18 76.87 84.37 87.15"/><polygon class="cls-1" points="182.37 359.18 182.37 338.61 164.56 328.33 146.75 338.61 146.75 359.18 164.56 369.46 182.37 359.18"/><polygon class="cls-1" points="348.81 359.18 348.81 338.61 331 328.33 313.19 338.61 313.19 359.18 331 369.46 348.81 359.18"/><polygon class="cls-1" points="161.68 394.2 161.68 373.63 143.87 363.35 126.06 373.63 126.06 394.2 143.87 404.48 161.68 394.2"/><polygon class="cls-1" points="119.99 394.2 119.99 373.63 102.18 363.35 84.37 373.63 84.37 394.2 102.18 404.48 119.99 394.2"/><polygon class="cls-1" points="99.15 359.18 99.15 338.61 81.34 328.33 63.53 338.61 63.53 359.18 81.34 369.46 99.15 359.18"/><polygon class="cls-1" points="78.3 323.33 78.3 302.76 60.49 292.48 42.69 302.76 42.69 323.33 60.49 333.61 78.3 323.33"/><polygon class="cls-1" points="334.26 87.15 334.26 107.72 352.06 118 369.87 107.72 369.87 87.15 352.06 76.87 334.26 87.15"/><polygon class="cls-1" points="140.83 359.18 140.83 338.61 123.02 328.33 105.22 338.61 105.22 359.18 123.02 369.46 140.83 359.18"/><polygon class="cls-1" points="203.36 394.2 203.36 373.63 185.55 363.35 167.74 373.63 167.74 394.2 185.55 404.48 203.36 394.2"/><polygon class="cls-1" points="307.58 359.18 307.58 338.61 289.77 328.33 271.96 338.61 271.96 359.18 289.77 369.46 307.58 359.18"/><polygon class="cls-1" points="328.42 394.2 328.42 373.63 310.61 363.35 292.8 373.63 292.8 394.2 310.61 404.48 328.42 394.2"/><polygon class="cls-1" points="286.74 394.2 286.74 373.63 268.93 363.35 251.12 373.63 251.12 394.2 268.93 404.48 286.74 394.2"/><polygon class="cls-1" points="265.59 359.18 265.59 338.61 247.78 328.33 229.97 338.61 229.97 359.18 247.78 369.46 265.59 359.18"/><polygon class="cls-1" points="224.21 359.18 224.21 338.61 206.4 328.33 188.59 338.61 188.59 359.18 206.4 369.46 224.21 359.18"/><polygon class="cls-1" points="245.05 394.2 245.05 373.63 227.24 363.35 209.43 373.63 209.43 394.2 227.24 404.48 245.05 394.2"/><polygon class="cls-1" points="78.3 394.2 78.3 373.63 60.49 363.35 42.69 373.63 42.69 394.2 60.49 404.48 78.3 394.2"/><polygon class="cls-1" points="229.97 123 229.97 143.56 247.78 153.85 265.59 143.56 265.59 123 247.78 112.72 229.97 123"/><polygon class="cls-1" points="188.59 123 188.59 143.56 206.4 153.85 224.21 143.56 224.21 123 206.4 112.72 188.59 123"/><polygon class="cls-1" points="209.43 87.15 209.43 107.72 227.24 118 245.05 107.72 245.05 87.15 227.24 76.87 209.43 87.15"/><polygon class="cls-1" points="251.12 87.15 251.12 107.72 268.93 118 286.74 107.72 286.74 87.15 268.93 76.87 251.12 87.15"/><polygon class="cls-1" points="313.19 123 313.19 143.56 331 153.85 348.81 143.56 348.81 123 331 112.72 313.19 123"/><polygon class="cls-1" points="292.8 87.15 292.8 107.72 310.61 118 328.42 107.72 328.42 87.15 310.61 76.87 292.8 87.15"/><polygon class="cls-1" points="271.96 123 271.96 143.56 289.77 153.85 307.58 143.56 307.58 123 289.77 112.72 271.96 123"/><polygon class="cls-1" points="126.06 87.15 126.06 107.72 143.87 118 161.68 107.72 161.68 87.15 143.87 76.87 126.06 87.15"/><polygon class="cls-1" points="167.74 159.02 167.74 179.59 185.55 189.87 203.36 179.59 203.36 159.02 185.55 148.74 167.74 159.02"/><polygon class="cls-1" points="63.53 123 63.53 143.56 81.34 153.85 99.15 143.56 99.15 123 81.34 112.72 63.53 123"/><polygon class="cls-1" points="42.69 87.15 42.69 107.72 60.49 118 78.3 107.72 78.3 87.15 60.49 76.87 42.69 87.15"/><polygon class="cls-1" points="78.3 179.59 78.3 159.02 60.49 148.74 42.69 159.02 42.69 179.59 60.49 189.87 78.3 179.59"/><polygon class="cls-1" points="105.22 123 105.22 143.56 123.02 153.85 140.83 143.56 140.83 123 123.02 112.72 105.22 123"/><polygon class="cls-1" points="146.75 123 146.75 143.56 164.56 153.85 182.37 143.56 182.37 123 164.56 112.72 146.75 123"/><polygon class="cls-1" points="167.74 87.15 167.74 107.72 185.55 118 203.36 107.72 203.36 87.15 185.55 76.87 167.74 87.15"/><polygon class="cls-1" points="78.3 251.46 78.3 230.89 60.49 220.61 42.69 230.89 42.69 251.46 60.49 261.74 78.3 251.46"/><polygon class="cls-1" points="15.25 287.31 15.25 266.74 0 257.94 0 296.11 15.25 287.31"/><polygon class="cls-1" points="36.62 251.46 36.62 230.89 18.81 220.61 1 230.89 1 251.46 18.81 261.74 36.62 251.46"/><polygon class="cls-1" points="15.25 359.18 15.25 338.61 0 329.81 0 367.98 15.25 359.18"/><polygon class="cls-1" points="36.62 323.33 36.62 302.76 18.81 292.48 1 302.76 1 323.33 18.81 333.61 36.62 323.33"/><polygon class="cls-1" points="15.25 215.43 15.25 194.87 0 186.07 0 224.24 15.25 215.43"/><polygon class="cls-1" points="15.25 143.56 15.25 123 0 114.2 0 152.37 15.25 143.56"/><polygon class="cls-1" points="36.62 179.59 36.62 159.02 18.81 148.74 1 159.02 1 179.59 18.81 189.87 36.62 179.59"/><polygon class="cls-1" points="36.62 464.07 36.62 443.5 18.81 433.22 1 443.5 1 464.07 18.81 474.35 36.62 464.07"/><polygon class="cls-1" points="99.15 499.92 99.15 479.35 81.34 469.07 63.53 479.35 63.53 499.92 63.67 500 99 500 99.15 499.92"/><polygon class="cls-1" points="36.62 394.2 36.62 373.63 18.81 363.35 1 373.63 1 394.2 18.81 404.48 36.62 394.2"/><polygon class="cls-1" points="57.46 499.92 57.46 479.35 39.65 469.07 21.84 479.35 21.84 499.92 21.99 500 57.32 500 57.46 499.92"/><polygon class="cls-1" points="140.83 499.92 140.83 479.35 123.02 469.07 105.22 479.35 105.22 499.92 105.36 500 140.69 500 140.83 499.92"/><polygon class="cls-1" points="15.25 429.05 15.25 408.48 0 399.68 0 437.85 15.25 429.05"/><polygon class="cls-1" points="15.1 500 15.25 499.92 15.25 479.35 0 470.55 0 500 15.1 500"/><polygon class="cls-1" points="36.62 107.72 36.62 87.15 18.81 76.87 1 87.15 1 107.72 18.81 118 36.62 107.72"/><polygon class="cls-1" points="500 8.72 500 0 479.77 0 497.44 10.2 500 8.72"/><polygon class="cls-1" points="15.25 71.69 15.25 51.13 0 42.33 0 80.5 15.25 71.69"/><polygon class="cls-1" points="372.91 10.2 390.57 0 355.24 0 372.91 10.2"/><polygon class="cls-1" points="289.77 10.2 307.43 0 272.1 0 289.77 10.2"/><polygon class="cls-1" points="331 10.2 348.66 0 313.33 0 331 10.2"/><polygon class="cls-1" points="182.37 499.92 182.37 479.35 164.56 469.07 146.75 479.35 146.75 499.92 146.89 500 182.22 500 182.37 499.92"/><polygon class="cls-1" points="456.28 10.2 473.95 0 438.61 0 456.28 10.2"/><polygon class="cls-1" points="414.22 10.2 431.88 0 396.55 0 414.22 10.2"/><polygon class="cls-1" points="247.78 10.2 265.44 0 230.11 0 247.78 10.2"/><polygon class="cls-1" points="0 8.72 15.1 0 0 0 0 8.72"/><polygon class="cls-1" points="206.4 10.2 224.06 0 188.73 0 206.4 10.2"/><polygon class="cls-1" points="36.62 35.84 36.62 15.28 18.81 5 1 15.28 1 35.84 18.81 46.13 36.62 35.84"/><polygon class="cls-1" points="39.65 10.2 57.32 0 21.99 0 39.65 10.2"/><polygon class="cls-1" points="164.56 10.2 182.22 0 146.89 0 164.56 10.2"/><polygon class="cls-1" points="81.34 10.2 99 0 63.67 0 81.34 10.2"/><polygon class="cls-1" points="123.02 10.2 140.69 0 105.36 0 123.02 10.2"/><polygon class="cls-1" points="500 470.55 497.44 469.07 479.63 479.35 479.63 499.92 479.77 500 500 500 500 470.55"/><polygon class="cls-1" points="334.26 159.02 334.26 179.59 352.06 189.87 369.87 179.59 369.87 159.02 352.06 148.74 334.26 159.02"/><polygon class="cls-1" points="292.8 159.02 292.8 179.59 310.61 189.87 328.42 179.59 328.42 159.02 310.61 148.74 292.8 159.02"/><polygon class="cls-1" points="292.8 230.89 292.8 251.46 310.61 261.74 328.42 251.46 328.42 230.89 310.61 220.61 292.8 230.89"/><polygon class="cls-1" points="313.19 194.87 313.19 215.43 331 225.72 348.81 215.43 348.81 194.87 331 184.59 313.19 194.87"/><polygon class="cls-1" points="375.94 159.02 375.94 179.59 393.75 189.87 411.56 179.59 411.56 159.02 393.75 148.74 375.94 159.02"/><polygon class="cls-1" points="355.1 194.87 355.1 215.43 372.91 225.72 390.72 215.43 390.72 194.87 372.91 184.59 355.1 194.87"/><polygon class="cls-1" points="334.26 230.89 334.26 251.46 352.06 261.74 369.87 251.46 369.87 230.89 352.06 220.61 334.26 230.89"/><polygon class="cls-1" points="188.59 194.87 188.59 215.43 206.4 225.72 224.21 215.43 224.21 194.87 206.4 184.59 188.59 194.87"/><polygon class="cls-1" points="209.43 230.89 209.43 251.46 227.24 261.74 245.05 251.46 245.05 230.89 227.24 220.61 209.43 230.89"/><polygon class="cls-1" points="209.43 159.02 209.43 179.59 227.24 189.87 245.05 179.59 245.05 159.02 227.24 148.74 209.43 159.02"/><polygon class="cls-1" points="375.94 230.89 375.94 251.46 393.75 261.74 411.56 251.46 411.56 230.89 393.75 220.61 375.94 230.89"/><polygon class="cls-1" points="251.12 159.02 251.12 179.59 268.93 189.87 286.74 179.59 286.74 159.02 268.93 148.74 251.12 159.02"/><polygon class="cls-1" points="251.12 230.89 251.12 251.46 268.93 261.74 286.74 251.46 286.74 230.89 268.93 220.61 251.12 230.89"/><polygon class="cls-1" points="271.96 194.87 271.96 215.43 289.77 225.72 307.58 215.43 307.58 194.87 289.77 184.59 271.96 194.87"/><polygon class="cls-1" points="229.97 194.87 229.97 215.43 247.78 225.72 265.59 215.43 265.59 194.87 247.78 184.59 229.97 194.87"/><polygon class="cls-1" points="390.72 499.92 390.72 479.35 372.91 469.07 355.1 479.35 355.1 499.92 355.24 500 390.57 500 390.72 499.92"/><polygon class="cls-1" points="432.03 215.43 432.03 194.87 414.22 184.59 396.41 194.87 396.41 215.43 414.22 225.72 432.03 215.43"/><polygon class="cls-1" points="432.03 499.92 432.03 479.35 414.22 469.07 396.41 479.35 396.41 499.92 396.55 500 431.88 500 432.03 499.92"/><polygon class="cls-1" points="474.09 499.92 474.09 479.35 456.28 469.07 438.47 479.35 438.47 499.92 438.61 500 473.95 500 474.09 499.92"/><polygon class="cls-1" points="224.21 499.92 224.21 479.35 206.4 469.07 188.59 479.35 188.59 499.92 188.73 500 224.06 500 224.21 499.92"/><polygon class="cls-1" points="265.59 499.92 265.59 479.35 247.78 469.07 229.97 479.35 229.97 499.92 230.11 500 265.44 500 265.59 499.92"/><polygon class="cls-1" points="307.58 499.92 307.58 479.35 289.77 469.07 271.96 479.35 271.96 499.92 272.1 500 307.43 500 307.58 499.92"/><polygon class="cls-1" points="348.81 499.92 348.81 479.35 331 469.07 313.19 479.35 313.19 499.92 313.33 500 348.66 500 348.81 499.92"/><polygon class="cls-1" points="167.74 230.89 167.74 251.46 185.55 261.74 203.36 251.46 203.36 230.89 185.55 220.61 167.74 230.89"/><polygon class="cls-1" points="497.44 112.72 479.63 123 479.63 143.56 497.44 153.85 500 152.37 500 114.2 497.44 112.72"/><polygon class="cls-1" points="497.44 40.85 479.63 51.13 479.63 71.69 497.44 81.97 500 80.5 500 42.33 497.44 40.85"/><polygon class="cls-1" points="474.09 71.69 474.09 51.13 456.28 40.85 438.47 51.13 438.47 71.69 456.28 81.97 474.09 71.69"/><polygon class="cls-1" points="497.44 256.46 479.63 266.74 479.63 287.31 497.44 297.59 500 296.11 500 257.94 497.44 256.46"/><polygon class="cls-1" points="497.44 328.33 479.63 338.61 479.63 359.18 497.44 369.46 500 367.98 500 329.81 497.44 328.33"/><polygon class="cls-1" points="497.44 184.59 479.63 194.87 479.63 215.43 497.44 225.72 500 224.24 500 186.07 497.44 184.59"/><polygon class="cls-1" points="497.44 398.2 479.63 408.48 479.63 429.05 497.44 439.33 500 437.85 500 399.68 497.44 398.2"/><polygon class="cls-1" points="417.63 443.5 417.63 464.07 435.44 474.35 453.25 464.07 453.25 443.5 435.44 433.22 417.63 443.5"/><polygon class="cls-1" points="78.3 35.84 78.3 15.28 60.49 5 42.69 15.28 42.69 35.84 60.49 46.13 78.3 35.84"/><polygon class="cls-1" points="84.37 443.5 84.37 464.07 102.18 474.35 119.99 464.07 119.99 443.5 102.18 433.22 84.37 443.5"/><polygon class="cls-1" points="57.46 143.56 57.46 123 39.65 112.72 21.84 123 21.84 143.56 39.65 153.85 57.46 143.56"/><polygon class="cls-1" points="57.46 215.43 57.46 194.87 39.65 184.59 21.84 194.87 21.84 215.43 39.65 225.72 57.46 215.43"/><polygon class="cls-1" points="99.15 71.69 99.15 51.13 81.34 40.85 63.53 51.13 63.53 71.69 81.34 81.97 99.15 71.69"/><polygon class="cls-1" points="119.99 35.84 119.99 15.28 102.18 5 84.37 15.28 84.37 35.84 102.18 46.13 119.99 35.84"/><polygon class="cls-1" points="63.53 408.48 63.53 429.05 81.34 439.33 99.15 429.05 99.15 408.48 81.34 398.2 63.53 408.48"/><polygon class="cls-1" points="57.46 287.31 57.46 266.74 39.65 256.46 21.84 266.74 21.84 287.31 39.65 297.59 57.46 287.31"/><polygon class="cls-1" points="390.72 71.69 390.72 51.13 372.91 40.85 355.1 51.13 355.1 71.69 372.91 81.97 390.72 71.69"/><polygon class="cls-1" points="140.83 71.69 140.83 51.13 123.02 40.85 105.22 51.13 105.22 71.69 123.02 81.97 140.83 71.69"/><polygon class="cls-1" points="57.46 359.18 57.46 338.61 39.65 328.33 21.84 338.61 21.84 359.18 39.65 369.46 57.46 359.18"/><polygon class="cls-1" points="21.84 408.48 21.84 429.05 39.65 439.33 57.46 429.05 57.46 408.48 39.65 398.2 21.84 408.48"/><polygon class="cls-1" points="57.46 71.69 57.46 51.13 39.65 40.85 21.84 51.13 21.84 71.69 39.65 81.97 57.46 71.69"/><polygon class="cls-1" points="307.58 71.69 307.58 51.13 289.77 40.85 271.96 51.13 271.96 71.69 289.77 81.97 307.58 71.69"/><polygon class="cls-1" points="328.42 35.84 328.42 15.28 310.61 5 292.8 15.28 292.8 35.84 310.61 46.13 328.42 35.84"/><polygon class="cls-1" points="369.87 35.84 369.87 15.28 352.06 5 334.26 15.28 334.26 35.84 352.06 46.13 369.87 35.84"/><polygon class="cls-1" points="286.74 35.84 286.74 15.28 268.93 5 251.12 15.28 251.12 35.84 268.93 46.13 286.74 35.84"/><polygon class="cls-1" points="348.81 71.69 348.81 51.13 331 40.85 313.19 51.13 313.19 71.69 331 81.97 348.81 71.69"/><polygon class="cls-1" points="161.68 35.84 161.68 15.28 143.87 5 126.06 15.28 126.06 35.84 143.87 46.13 161.68 35.84"/><polygon class="cls-1" points="203.36 35.84 203.36 15.28 185.55 5 167.74 15.28 167.74 35.84 185.55 46.13 203.36 35.84"/><polygon class="cls-1" points="182.37 71.69 182.37 51.13 164.56 40.85 146.75 51.13 146.75 71.69 164.56 81.97 182.37 71.69"/><polygon class="cls-1" points="245.05 35.84 245.05 15.28 227.24 5 209.43 15.28 209.43 35.84 227.24 46.13 245.05 35.84"/><polygon class="cls-1" points="265.59 71.69 265.59 51.13 247.78 40.85 229.97 51.13 229.97 71.69 247.78 81.97 265.59 71.69"/><polygon class="cls-1" points="224.21 71.69 224.21 51.13 206.4 40.85 188.59 51.13 188.59 71.69 206.4 81.97 224.21 71.69"/><polygon class="cls-1" points="42.69 443.5 42.69 464.07 60.49 474.35 78.3 464.07 78.3 443.5 60.49 433.22 42.69 443.5"/><polygon class="cls-1" points="105.22 408.48 105.22 429.05 123.02 439.33 140.83 429.05 140.83 408.48 123.02 398.2 105.22 408.48"/><polygon class="cls-1" points="459.31 443.5 459.31 464.07 477.12 474.35 494.93 464.07 494.93 443.5 477.12 433.22 459.31 443.5"/><polygon class="cls-1" points="396.41 408.48 396.41 429.05 414.22 439.33 432.03 429.05 432.03 408.48 414.22 398.2 396.41 408.48"/><polygon class="cls-1" points="459.31 373.63 459.31 394.2 477.12 404.48 494.93 394.2 494.93 373.63 477.12 363.35 459.31 373.63"/><polygon class="cls-1" points="375.94 443.5 375.94 464.07 393.75 474.35 411.56 464.07 411.56 443.5 393.75 433.22 375.94 443.5"/><polygon class="cls-1" points="355.1 408.48 355.1 429.05 372.91 439.33 390.72 429.05 390.72 408.48 372.91 398.2 355.1 408.48"/><polygon class="cls-1" points="459.31 230.89 459.31 251.46 477.12 261.74 494.93 251.46 494.93 230.89 477.12 220.61 459.31 230.89"/><polygon class="cls-1" points="459.31 87.15 459.31 107.72 477.12 118 494.93 107.72 494.93 87.15 477.12 76.87 459.31 87.15"/><polygon class="cls-1" points="459.31 302.76 459.31 323.33 477.12 333.61 494.93 323.33 494.93 302.76 477.12 292.48 459.31 302.76"/><polygon class="cls-1" points="459.31 15.28 459.31 35.84 477.12 46.13 494.93 35.84 494.93 15.28 477.12 5 459.31 15.28"/><polygon class="cls-1" points="334.26 443.5 334.26 464.07 352.06 474.35 369.87 464.07 369.87 443.5 352.06 433.22 334.26 443.5"/><polygon class="cls-1" points="459.31 159.02 459.31 179.59 477.12 189.87 494.93 179.59 494.93 159.02 477.12 148.74 459.31 159.02"/><polygon class="cls-1" points="438.47 408.48 438.47 429.05 456.28 439.33 474.09 429.05 474.09 408.48 456.28 398.2 438.47 408.48"/><polygon class="cls-1" points="188.59 408.48 188.59 429.05 206.4 439.33 224.21 429.05 224.21 408.48 206.4 398.2 188.59 408.48"/><polygon class="cls-1" points="167.74 443.5 167.74 464.07 185.55 474.35 203.36 464.07 203.36 443.5 185.55 433.22 167.74 443.5"/><polygon class="cls-1" points="209.43 443.5 209.43 464.07 227.24 474.35 245.05 464.07 245.05 443.5 227.24 433.22 209.43 443.5"/><polygon class="cls-1" points="146.75 408.48 146.75 429.05 164.56 439.33 182.37 429.05 182.37 408.48 164.56 398.2 146.75 408.48"/><polygon class="cls-1" points="126.06 443.5 126.06 464.07 143.87 474.35 161.68 464.07 161.68 443.5 143.87 433.22 126.06 443.5"/><polygon class="cls-1" points="251.12 443.5 251.12 464.07 268.93 474.35 286.74 464.07 286.74 443.5 268.93 433.22 251.12 443.5"/><polygon class="cls-1" points="292.8 443.5 292.8 464.07 310.61 474.35 328.42 464.07 328.42 443.5 310.61 433.22 292.8 443.5"/><polygon class="cls-1" points="271.96 408.48 271.96 429.05 289.77 439.33 307.58 429.05 307.58 408.48 289.77 398.2 271.96 408.48"/><polygon class="cls-1" points="229.97 408.48 229.97 429.05 247.78 439.33 265.59 429.05 265.59 408.48 247.78 398.2 229.97 408.48"/><polygon class="cls-1" points="313.19 408.48 313.19 429.05 331 439.33 348.81 429.05 348.81 408.48 331 398.2 313.19 408.48"/><path class="cls-1" d="M478.63.49V0h-3.54V.49L456.28,11.35,437.47.49V0H433V.49L414.22,11.35,395.41.49V0h-3.69V.49L372.91,11.35,354.1.49V0h-4.29V.49L331,11.35,312.19.49V0h-3.61V.49L289.77,11.35,271,.49V0h-4.37V.49L247.78,11.35,229,.49V0h-3.76V.49L206.4,11.35,187.59.49V0h-4.22V.49L164.56,11.35,145.75.49V0h-3.92V.49L123,11.35,104.22.49V0h-4.07V.49L81.34,11.35,62.53.49V0H58.46V.49L39.65,11.35,20.84.49V0H16.25V.49L0,9.87V14.7L18.81,3.84,37.62,14.7V36.42L18.81,47.28,0,36.42v4.75l16.25,9.38V72.27L0,81.65v4.92L18.81,75.71,37.62,86.57v21.72L18.81,119.15,0,108.29V113l16.25,9.38v21.72L0,153.52v4.92l18.81-10.86,18.81,10.86v21.72L18.81,191,0,180.16v4.75l16.25,9.38V216L0,225.39v4.93l18.81-10.86,18.81,10.86V252L18.81,262.89,0,252v4.75l16.25,9.38v21.72L0,297.26v4.93l18.81-10.86,18.81,10.86V323.9L18.81,334.76,0,323.9v4.75L16.25,338v21.72L0,369.13v3.93L18.81,362.2l18.81,10.86v21.72L18.81,405.63,0,394.78v3.75l16.25,9.38v21.71L0,439v3.93l18.81-10.86,18.81,10.86v21.72L18.81,475.51,0,464.65v4.75l16.25,9.38V500h4.59V478.78l18.81-10.86,18.81,10.86V500h4.07V478.78l18.81-10.86,18.81,10.86V500h4.07V478.78L123,467.92l18.81,10.86V500h3.92V478.78l18.81-10.86,18.81,10.86V500h4.22V478.78l18.81-10.86,18.81,10.86V500H229V478.78l18.81-10.86,18.81,10.86V500H271V478.78l18.81-10.86,18.81,10.86V500h3.61V478.78L331,467.92l18.81,10.86V500h4.29V478.78l18.81-10.86,18.81,10.86V500h3.69V478.78l18.81-10.86L433,478.78V500h4.44V478.78l18.81-10.86,18.81,10.86V500h3.54V478.78l18.81-10.86L500,469.4V439l-2.56,1.48-18.81-10.86V407.91l18.81-10.86,2.56,1.48v-29.4l-2.56,1.48-18.81-10.86V338l18.81-10.86,2.56,1.48V297.26l-2.56,1.48-18.81-10.86V266.16l18.81-10.86,2.56,1.48V225.39l-2.56,1.48L478.63,216V194.29l18.81-10.86,2.56,1.48V153.52L497.44,155l-18.81-10.86V122.42l18.81-10.86L500,113V81.65l-2.56,1.48L478.63,72.27V50.55l18.81-10.86L500,41.17V9.87l-2.56,1.48Zm-3.54,50.06V72.27L456.28,83.13,437.47,72.27V50.55l18.81-10.86ZM395.41,216V194.29l18.81-10.86L433,194.29V216l-18.81,10.86Zm17.15,14.31V252l-18.81,10.86L374.94,252V230.32l18.81-10.86Zm0-50.16L393.75,191l-18.81-10.86V158.44l18.81-10.86,18.81,10.86Zm-20.84,14.13V216l-18.81,10.86L354.1,216V194.29l18.81-10.86Zm-20.85,36V252l-18.81,10.86L333.26,252V230.32l18.8-10.86Zm0-50.16L352.06,191l-18.8-10.86V158.44l18.8-10.86,18.81,10.86Zm-21.06,14.13V216L331,226.87,312.19,216V194.29L331,183.43Zm-20.39,36V252l-18.81,10.86L291.8,252V230.32l18.81-10.86Zm0-50.16L310.61,191,291.8,180.16V158.44l18.81-10.86,18.81,10.86Zm-20.84,14.13V216l-18.81,10.86L271,216V194.29l18.81-10.86Zm-20.85,36V252l-18.8,10.86L250.12,252V230.32l18.81-10.86Zm0-50.16L268.93,191l-18.81-10.86V158.44l18.81-10.86,18.8,10.86Zm-21.14,14.13V216l-18.81,10.86L229,216V194.29l18.81-10.86Zm-20.54,36V252l-18.81,10.86L208.43,252V230.32l18.81-10.86Zm0-50.16L227.24,191l-18.81-10.86V158.44l18.81-10.86,18.81,10.86Zm-20.84,14.13V216L206.4,226.87,187.59,216V194.29l18.81-10.86Zm-20.85,36V252l-18.81,10.86L166.74,252V230.32l18.81-10.86Zm0-50.16L185.55,191l-18.81-10.86V158.44l18.81-10.86,18.81,10.86Zm-21,14.13V216l-18.81,10.86L145.75,216V194.29l18.81-10.86Zm-20.69,36V252l-18.81,10.86L125.06,252V230.32l18.81-10.86Zm0-50.16L143.87,191l-18.81-10.86V158.44l18.81-10.86,18.81,10.86Zm-20.85,14.13V216L123,226.87,104.22,216V194.29L123,183.43Zm-20.84,36V252l-18.81,10.86L83.37,252V230.32l18.81-10.86Zm0-50.16L102.18,191,83.37,180.16V158.44l18.81-10.86L121,158.44Zm-20.84,14.13V216L81.34,226.87,62.53,216V194.29l18.81-10.86Zm0,71.87v21.72L81.34,298.74,62.53,287.88V266.16L81.34,255.3Zm-16.78,36,18.81-10.86L121,302.19V323.9l-18.81,10.86L83.37,323.9Zm20.85-14.31V266.16L123,255.3l18.81,10.86v21.72L123,298.74Zm20.84,14.31,18.81-10.86,18.81,10.86V323.9l-18.81,10.86L125.06,323.9Zm20.69-14.31V266.16l18.81-10.86,18.81,10.86v21.72l-18.81,10.86Zm21,14.31,18.81-10.86,18.81,10.86V323.9l-18.81,10.86L166.74,323.9Zm20.85-14.31V266.16L206.4,255.3l18.81,10.86v21.72L206.4,298.74Zm20.84,14.31,18.81-10.86,18.81,10.86V323.9l-18.81,10.86L208.43,323.9ZM229,287.88V266.16l18.81-10.86,18.81,10.86v21.72l-18.81,10.86Zm21.15,14.31,18.81-10.86,18.8,10.86V323.9l-18.8,10.86L250.12,323.9ZM271,287.88V266.16l18.81-10.86,18.81,10.86v21.72l-18.81,10.86Zm20.84,14.31,18.81-10.86,18.81,10.86V323.9l-18.81,10.86L291.8,323.9Zm20.39-14.31V266.16L331,255.3l18.81,10.86v21.72L331,298.74Zm21.07,14.31,18.8-10.86,18.81,10.86V323.9l-18.81,10.86-18.8-10.86Zm20.84-14.31V266.16l18.81-10.86,18.81,10.86v21.72l-18.81,10.86Zm20.84,14.31,18.81-10.86,18.81,10.86V323.9l-18.81,10.86L374.94,323.9Zm20.47-14.31V266.16l18.81-10.86L433,266.16v21.72l-18.81,10.86Zm21.22,14.31,18.81-10.86,18.81,10.86V323.9l-18.81,10.86L416.63,323.9Zm0-50.16V230.32l18.81-10.86,18.81,10.86V252l-18.81,10.86Zm0-71.87V158.44l18.81-10.86,18.81,10.86v21.72L435.44,191Zm0-71.87V86.57l18.81-10.86,18.81,10.86v21.72l-18.81,10.86ZM433,122.42v21.72L414.22,155l-18.81-10.86V122.42l18.81-10.86Zm-20.47-14.13-18.81,10.86-18.81-10.86V86.57l18.81-10.86,18.81,10.86Zm-20.84,14.13v21.72L372.91,155,354.1,144.14V122.42l18.81-10.86Zm-20.85-14.13-18.81,10.86-18.8-10.86V86.57l18.8-10.86,18.81,10.86Zm-21.06,14.13v21.72L331,155l-18.81-10.86V122.42L331,111.56Zm-20.39-14.13-18.81,10.86L291.8,108.29V86.57l18.81-10.86,18.81,10.86Zm-20.84,14.13v21.72L289.77,155,271,144.14V122.42l18.81-10.86Zm-20.85-14.13-18.8,10.86-18.81-10.86V86.57l18.81-10.86,18.8,10.86Zm-21.14,14.13v21.72L247.78,155,229,144.14V122.42l18.81-10.86Zm-20.54-14.13-18.81,10.86-18.81-10.86V86.57l18.81-10.86,18.81,10.86Zm-20.84,14.13v21.72L206.4,155l-18.81-10.86V122.42l18.81-10.86Zm-20.85-14.13-18.81,10.86-18.81-10.86V86.57l18.81-10.86,18.81,10.86Zm-21,14.13v21.72L164.56,155l-18.81-10.86V122.42l18.81-10.86Zm-20.69-14.13-18.81,10.86-18.81-10.86V86.57l18.81-10.86,18.81,10.86Zm-20.85,14.13v21.72L123,155l-18.8-10.86V122.42L123,111.56ZM121,108.29l-18.81,10.86L83.37,108.29V86.57l18.81-10.86L121,86.57Zm-20.84,14.13v21.72L81.34,155,62.53,144.14V122.42l18.81-10.86ZM79.3,108.29,60.5,119.15,41.69,108.29V86.57L60.5,75.71,79.3,86.57Zm0,50.15v21.72L60.5,191,41.69,180.16V158.44L60.5,147.58Zm0,71.88V252L60.5,262.89,41.69,252V230.32L60.5,219.46Zm0,71.87V323.9L60.5,334.76,41.69,323.9V302.19L60.5,291.33Zm0,70.87v21.72L60.5,405.63,41.69,394.78V373.06L60.5,362.2ZM62.53,359.75V338l18.81-10.86L100.15,338v21.72L81.34,370.61Zm20.84,13.31,18.81-10.86L121,373.06v21.72l-18.81,10.85L83.37,394.78Zm20.85-13.31V338L123,327.17,141.83,338v21.72L123,370.61Zm20.84,13.31,18.81-10.86,18.81,10.86v21.72l-18.81,10.85-18.81-10.85Zm20.69-13.31V338l18.81-10.86L183.37,338v21.72l-18.81,10.86Zm21,13.31,18.81-10.86,18.81,10.86v21.72l-18.81,10.85-18.81-10.85Zm20.85-13.31V338l18.81-10.86L225.21,338v21.72L206.4,370.61Zm20.84,13.31,18.81-10.86,18.81,10.86v21.72l-18.81,10.85-18.81-10.85ZM229,359.75V338l18.81-10.86L266.59,338v21.72l-18.81,10.86Zm21.15,13.31,18.81-10.86,18.8,10.86v21.72l-18.8,10.85-18.81-10.85ZM271,359.75V338l18.81-10.86L308.58,338v21.72l-18.81,10.86Zm20.84,13.31,18.81-10.86,18.81,10.86v21.72l-18.81,10.85L291.8,394.78Zm20.39-13.31V338L331,327.17,349.81,338v21.72L331,370.61Zm21.07,13.31,18.8-10.86,18.81,10.86v21.72l-18.81,10.85-18.8-10.85Zm20.84-13.31V338l18.81-10.86L391.72,338v21.72l-18.81,10.86Zm20.84,13.31,18.81-10.86,18.81,10.86v21.72l-18.81,10.85-18.81-10.85Zm20.47-13.31V338l18.81-10.86L433,338v21.72l-18.81,10.86Zm21.22,13.31,18.81-10.86,18.81,10.86v21.72l-18.81,10.85-18.81-10.85Zm20.84-13.31V338l18.81-10.86L475.09,338v21.72l-18.81,10.86Zm0-71.87V266.16l18.81-10.86,18.81,10.86v21.72l-18.81,10.86Zm0-71.87V194.29l18.81-10.86,18.81,10.86V216l-18.81,10.86Zm0-71.87V122.42l18.81-10.86,18.81,10.86v21.72L456.28,155ZM416.63,14.7,435.44,3.84,454.25,14.7V36.42L435.44,47.28,416.63,36.42ZM433,50.55V72.27L414.22,83.13,395.41,72.27V50.55l18.81-10.86ZM374.94,14.7,393.75,3.84,412.56,14.7V36.42L393.75,47.28,374.94,36.42Zm16.78,35.85V72.27L372.91,83.13,354.1,72.27V50.55l18.81-10.86ZM333.26,14.7l18.8-10.86L370.87,14.7V36.42L352.06,47.28l-18.8-10.86Zm16.55,35.85V72.27L331,83.13,312.19,72.27V50.55L331,39.69Zm-58-35.85L310.61,3.84,329.42,14.7V36.42L310.61,47.28,291.8,36.42Zm16.78,35.85V72.27L289.77,83.13,271,72.27V50.55l18.81-10.86ZM250.12,14.7,268.93,3.84l18.8,10.86V36.42l-18.8,10.86L250.12,36.42Zm16.47,35.85V72.27L247.78,83.13,229,72.27V50.55l18.81-10.86ZM208.43,14.7,227.24,3.84,246.05,14.7V36.42L227.24,47.28,208.43,36.42Zm16.78,35.85V72.27L206.4,83.13,187.59,72.27V50.55L206.4,39.69ZM166.74,14.7,185.55,3.84,204.36,14.7V36.42L185.55,47.28,166.74,36.42Zm16.63,35.85V72.27L164.56,83.13,145.75,72.27V50.55l18.81-10.86ZM125.06,14.7,143.87,3.84,162.68,14.7V36.42L143.87,47.28,125.06,36.42Zm16.77,35.85V72.27L123,83.13l-18.8-10.86V50.55L123,39.69ZM83.37,14.7,102.18,3.84,121,14.7V36.42L102.18,47.28,83.37,36.42Zm16.78,35.85V72.27L81.34,83.13,62.53,72.27V50.55L81.34,39.69ZM41.69,14.7,60.5,3.84,79.3,14.7V36.42L60.5,47.28,41.69,36.42ZM20.84,72.27V50.55L39.65,39.69,58.46,50.55V72.27L39.65,83.13Zm0,71.87V122.42l18.81-10.86,18.81,10.86v21.72L39.65,155Zm0,71.87V194.29l18.81-10.86,18.81,10.86V216L39.65,226.87Zm0,71.87V266.16L39.65,255.3l18.81,10.86v21.72L39.65,298.74Zm0,71.87V338l18.81-10.86L58.46,338v21.72L39.65,370.61Zm0,69.87V407.91l18.81-10.86,18.81,10.86v21.71L39.65,440.48Zm58.46,35L60.5,475.51,41.69,464.65V442.93L60.5,432.07l18.8,10.86Zm-16.77-35V407.91l18.81-10.86,18.81,10.86v21.71L81.34,440.48Zm58.46,35-18.81,10.86L83.37,464.65V442.93l18.81-10.86L121,442.93Zm-16.77-35V407.91L123,397.05l18.81,10.86v21.71L123,440.48Zm58.46,35-18.81,10.86-18.81-10.86V442.93l18.81-10.86,18.81,10.86Zm-16.93-35V407.91l18.81-10.86,18.81,10.86v21.71l-18.81,10.86Zm58.61,35-18.81,10.86-18.81-10.86V442.93l18.81-10.86,18.81,10.86Zm-16.77-35V407.91l18.81-10.86,18.81,10.86v21.71L206.4,440.48Zm58.46,35-18.81,10.86-18.81-10.86V442.93l18.81-10.86,18.81,10.86Zm-17.08-35V407.91l18.81-10.86,18.81,10.86v21.71l-18.81,10.86Zm58.76,35-18.8,10.86-18.81-10.86V442.93l18.81-10.86,18.8,10.86Zm-16.77-35V407.91l18.81-10.86,18.81,10.86v21.71l-18.81,10.86Zm58.46,35-18.81,10.86L291.8,464.65V442.93l18.81-10.86,18.81,10.86Zm-17.23-35V407.91L331,397.05l18.81,10.86v21.71L331,440.48Zm58.68,35-18.81,10.86-18.8-10.86V442.93l18.8-10.86,18.81,10.86Zm-16.77-35V407.91l18.81-10.86,18.81,10.86v21.71l-18.81,10.86Zm58.46,35-18.81,10.86-18.81-10.86V442.93l18.81-10.86,18.81,10.86Zm-17.15-35V407.91l18.81-10.86L433,407.91v21.71l-18.81,10.86Zm58.84,35-18.81,10.86-18.81-10.86V442.93l18.81-10.86,18.81,10.86Zm-16.78-35V407.91l18.81-10.86,18.81,10.86v21.71l-18.81,10.86Zm58.46,13.31v21.72l-18.81,10.86-18.81-10.86V442.93l18.81-10.86Zm0-69.87v21.72l-18.81,10.85-18.81-10.85V373.06l18.81-10.86Zm0-70.87V323.9l-18.81,10.86L458.31,323.9V302.19l18.81-10.86Zm0-71.87V252l-18.81,10.86L458.31,252V230.32l18.81-10.86Zm0-71.88v21.72L477.12,191l-18.81-10.86V158.44l18.81-10.86Zm0-71.87v21.72l-18.81,10.86-18.81-10.86V86.57l18.81-10.86Zm0-50.15L477.12,47.28,458.31,36.42V14.7L477.12,3.84,495.93,14.7Z" transform="translate(0 0)"/><polygon class="cls-1" points="438.47 266.74 438.47 287.31 456.28 297.59 474.09 287.31 474.09 266.74 456.28 256.46 438.47 266.74"/><polygon class="cls-1" points="369.87 394.2 369.87 373.63 352.06 363.35 334.26 373.63 334.26 394.2 352.06 404.48 369.87 394.2"/><polygon class="cls-1" points="411.56 35.84 411.56 15.28 393.75 5 375.94 15.28 375.94 35.84 393.75 46.13 411.56 35.84"/><polygon class="cls-1" points="453.25 394.2 453.25 373.63 435.44 363.35 417.63 373.63 417.63 394.2 435.44 404.48 453.25 394.2"/><polygon class="cls-1" points="474.09 359.18 474.09 338.61 456.28 328.33 438.47 338.61 438.47 359.18 456.28 369.46 474.09 359.18"/><polygon class="cls-1" points="411.56 394.2 411.56 373.63 393.75 363.35 375.94 373.63 375.94 394.2 393.75 404.48 411.56 394.2"/><polygon class="cls-1" points="438.47 194.87 438.47 215.43 456.28 225.72 474.09 215.43 474.09 194.87 456.28 184.59 438.47 194.87"/><polygon class="cls-1" points="453.25 35.84 453.25 15.28 435.44 5 417.63 15.28 417.63 35.84 435.44 46.13 453.25 35.84"/><polygon class="cls-1" points="432.03 359.18 432.03 338.61 414.22 328.33 396.41 338.61 396.41 359.18 414.22 369.46 432.03 359.18"/><polygon class="cls-1" points="438.47 123 438.47 143.56 456.28 153.85 474.09 143.56 474.09 123 456.28 112.72 438.47 123"/><polygon class="cls-1" points="432.03 71.69 432.03 51.13 414.22 40.85 396.41 51.13 396.41 71.69 414.22 81.97 432.03 71.69"/><polygon class="cls-1" points="390.72 359.18 390.72 338.61 372.91 328.33 355.1 338.61 355.1 359.18 372.91 369.46 390.72 359.18"/><path class="cls-2" d="M458.31,14.7V36.42l18.81,10.86,18.81-10.86V14.7L477.12,3.84Zm36.62,21.14L477.12,46.13,459.31,35.84V15.28L477.12,5l17.81,10.28Z" transform="translate(0 0)"/><path class="cls-2" d="M454.25,36.42V14.7L435.44,3.84,416.63,14.7V36.42l18.81,10.86ZM417.63,15.28,435.44,5l17.81,10.28V35.84L435.44,46.13,417.63,35.84Z" transform="translate(0 0)"/><path class="cls-2" d="M437.47,72.27l18.81,10.86,18.81-10.86V50.55L456.28,39.69,437.47,50.55Zm1-21.14,17.81-10.28,17.81,10.28V71.69L456.28,82,438.47,71.69Z" transform="translate(0 0)"/><path class="cls-2" d="M412.56,36.42V14.7L393.75,3.84,374.94,14.7V36.42l18.81,10.86ZM375.94,15.28,393.75,5l17.81,10.28V35.84L393.75,46.13,375.94,35.84Z" transform="translate(0 0)"/><path class="cls-2" d="M370.87,36.42V14.7L352.06,3.84,333.26,14.7V36.42l18.8,10.86ZM334.26,15.28,352.06,5l17.81,10.28V35.84L352.06,46.13l-17.8-10.29Z" transform="translate(0 0)"/><path class="cls-2" d="M354.1,72.27l18.81,10.86,18.81-10.86V50.55L372.91,39.69,354.1,50.55Zm1-21.14,17.81-10.28,17.81,10.28V71.69L372.91,82,355.1,71.69Z" transform="translate(0 0)"/><path class="cls-2" d="M329.42,36.42V14.7L310.61,3.84,291.8,14.7V36.42l18.81,10.86ZM292.8,15.28,310.61,5l17.81,10.28V35.84L310.61,46.13,292.8,35.84Z" transform="translate(0 0)"/><path class="cls-2" d="M287.73,36.42V14.7L268.93,3.84,250.12,14.7V36.42l18.81,10.86ZM251.12,15.28,268.93,5l17.8,10.28V35.84l-17.8,10.29L251.12,35.84Z" transform="translate(0 0)"/><path class="cls-2" d="M271,72.27l18.81,10.86,18.81-10.86V50.55L289.77,39.69,271,50.55Zm1-21.14,17.81-10.28,17.81,10.28V71.69L289.77,82,272,71.69Z" transform="translate(0 0)"/><path class="cls-2" d="M246.05,36.42V14.7L227.24,3.84,208.43,14.7V36.42l18.81,10.86ZM209.43,15.28,227.24,5l17.81,10.28V35.84L227.24,46.13,209.43,35.84Z" transform="translate(0 0)"/><path class="cls-2" d="M204.36,36.42V14.7L185.55,3.84,166.74,14.7V36.42l18.81,10.86ZM167.74,15.28,185.55,5l17.81,10.28V35.84L185.55,46.13,167.74,35.84Z" transform="translate(0 0)"/><path class="cls-2" d="M187.59,72.27,206.4,83.13l18.81-10.86V50.55L206.4,39.69,187.59,50.55Zm1-21.14L206.4,40.85l17.81,10.28V71.69L206.4,82,188.59,71.69Z" transform="translate(0 0)"/><path class="cls-2" d="M162.68,36.42V14.7L143.87,3.84,125.06,14.7V36.42l18.81,10.86ZM126.06,15.28,143.87,5l17.81,10.28V35.84L143.87,46.13,126.06,35.84Z" transform="translate(0 0)"/><path class="cls-2" d="M104.22,72.27,123,83.13l18.81-10.86V50.55L123,39.69l-18.8,10.86Zm1-21.14L123,40.85l17.81,10.28V71.69L123,82l-17.8-10.28Z" transform="translate(0 0)"/><path class="cls-2" d="M121,36.42V14.7L102.18,3.84,83.37,14.7V36.42l18.81,10.86ZM84.37,15.28,102.18,5,120,15.28V35.84L102.18,46.13,84.37,35.84Z" transform="translate(0 0)"/><path class="cls-2" d="M79.3,36.42V14.7L60.5,3.84,41.69,14.7V36.42L60.5,47.28ZM42.69,15.28,60.5,5,78.3,15.28V35.84L60.5,46.13,42.69,35.84Z" transform="translate(0 0)"/><path class="cls-2" d="M37.62,36.42V14.7L18.81,3.84,0,14.7V36.42L18.81,47.28ZM1,15.28,18.81,5,36.62,15.28V35.84L18.81,46.13,1,35.84Z" transform="translate(0 0)"/><path class="cls-2" d="M58.46,72.27V50.55L39.65,39.69,20.84,50.55V72.27L39.65,83.13ZM21.84,51.13,39.65,40.85,57.46,51.13V71.69L39.65,82,21.84,71.69Z" transform="translate(0 0)"/><path class="cls-2" d="M62.53,72.27,81.34,83.13l18.81-10.86V50.55L81.34,39.69,62.53,50.55Zm1-21.14L81.34,40.85,99.15,51.13V71.69L81.34,82,63.53,71.69Z" transform="translate(0 0)"/><path class="cls-2" d="M145.75,72.27l18.81,10.86,18.81-10.86V50.55L164.56,39.69,145.75,50.55Zm1-21.14,17.81-10.28,17.81,10.28V71.69L164.56,82,146.75,71.69Z" transform="translate(0 0)"/><path class="cls-2" d="M229,72.27l18.81,10.86,18.81-10.86V50.55L247.78,39.69,229,50.55Zm1-21.14,17.81-10.28,17.81,10.28V71.69L247.78,82,230,71.69Z" transform="translate(0 0)"/><path class="cls-2" d="M312.19,72.27,331,83.13l18.81-10.86V50.55L331,39.69,312.19,50.55Zm1-21.14L331,40.85l17.81,10.28V71.69L331,82,313.19,71.69Z" transform="translate(0 0)"/><path class="cls-2" d="M395.41,72.27l18.81,10.86L433,72.27V50.55L414.22,39.69,395.41,50.55Zm1-21.14,17.81-10.28L432,51.13V71.69L414.22,82,396.41,71.69Z" transform="translate(0 0)"/><polygon class="cls-2" points="478.63 50.55 478.63 72.27 497.44 83.13 500 81.65 500 80.5 497.44 81.97 479.63 71.69 479.63 51.13 497.44 40.85 500 42.33 500 41.17 497.44 39.69 478.63 50.55"/><polygon class="cls-2" points="16.25 50.55 0 41.17 0 42.33 15.25 51.13 15.25 71.69 0 80.5 0 81.65 16.25 72.27 16.25 50.55"/><path class="cls-2" d="M458.31,86.57v21.72l18.81,10.86,18.81-10.86V86.57L477.12,75.71Zm36.62,21.15L477.12,118l-17.81-10.28V87.15l17.81-10.28,17.81,10.28Z" transform="translate(0 0)"/><path class="cls-2" d="M454.25,86.57,435.44,75.71,416.63,86.57v21.72l18.81,10.86,18.81-10.86Zm-1,21.15L435.44,118l-17.81-10.28V87.15l17.81-10.28,17.81,10.28Z" transform="translate(0 0)"/><path class="cls-2" d="M475.09,122.42l-18.81-10.86-18.81,10.86v21.72L456.28,155l18.81-10.86Zm-1,21.14-17.81,10.29-17.81-10.29V123l17.81-10.28L474.09,123Z" transform="translate(0 0)"/><path class="cls-2" d="M374.94,86.57v21.72l18.81,10.86,18.81-10.86V86.57L393.75,75.71Zm36.62,21.15L393.75,118l-17.81-10.28V87.15l17.81-10.28,17.81,10.28Z" transform="translate(0 0)"/><path class="cls-2" d="M333.26,86.57v21.72l18.8,10.86,18.81-10.86V86.57L352.06,75.71Zm36.61,21.15L352.06,118l-17.8-10.28V87.15l17.8-10.28,17.81,10.28Z" transform="translate(0 0)"/><path class="cls-2" d="M354.1,122.42v21.72L372.91,155l18.81-10.86V122.42l-18.81-10.86Zm36.62,21.14-17.81,10.29L355.1,143.56V123l17.81-10.28L390.72,123Z" transform="translate(0 0)"/><path class="cls-2" d="M291.8,86.57v21.72l18.81,10.86,18.81-10.86V86.57L310.61,75.71Zm36.62,21.15L310.61,118,292.8,107.72V87.15l17.81-10.28,17.81,10.28Z" transform="translate(0 0)"/><path class="cls-2" d="M250.12,86.57v21.72l18.81,10.86,18.8-10.86V86.57l-18.8-10.86Zm36.61,21.15L268.93,118l-17.81-10.28V87.15l17.81-10.28,17.8,10.28Z" transform="translate(0 0)"/><path class="cls-2" d="M271,122.42v21.72L289.77,155l18.81-10.86V122.42l-18.81-10.86Zm36.62,21.14-17.81,10.29L272,143.56V123l17.81-10.28L307.58,123Z" transform="translate(0 0)"/><path class="cls-2" d="M208.43,86.57v21.72l18.81,10.86,18.81-10.86V86.57L227.24,75.71Zm36.62,21.15L227.24,118l-17.81-10.28V87.15l17.81-10.28,17.81,10.28Z" transform="translate(0 0)"/><path class="cls-2" d="M166.74,86.57v21.72l18.81,10.86,18.81-10.86V86.57L185.55,75.71Zm36.62,21.15L185.55,118l-17.81-10.28V87.15l17.81-10.28,17.81,10.28Z" transform="translate(0 0)"/><path class="cls-2" d="M187.59,122.42v21.72L206.4,155l18.81-10.86V122.42L206.4,111.56Zm36.62,21.14L206.4,153.85l-17.81-10.29V123l17.81-10.28L224.21,123Z" transform="translate(0 0)"/><path class="cls-2" d="M125.06,86.57v21.72l18.81,10.86,18.81-10.86V86.57L143.87,75.71Zm36.62,21.15L143.87,118l-17.81-10.28V87.15l17.81-10.28,17.81,10.28Z" transform="translate(0 0)"/><path class="cls-2" d="M104.22,122.42v21.72L123,155l18.81-10.86V122.42L123,111.56Zm36.61,21.14L123,153.85l-17.8-10.29V123L123,112.72,140.83,123Z" transform="translate(0 0)"/><path class="cls-2" d="M83.37,86.57v21.72l18.81,10.86L121,108.29V86.57L102.18,75.71ZM120,107.72,102.18,118,84.37,107.72V87.15l17.81-10.28L120,87.15Z" transform="translate(0 0)"/><path class="cls-2" d="M41.69,86.57v21.72L60.5,119.15l18.8-10.86V86.57L60.5,75.71ZM78.3,107.72,60.5,118,42.69,107.72V87.15L60.5,76.87,78.3,87.15Z" transform="translate(0 0)"/><path class="cls-2" d="M37.62,108.29V86.57L18.81,75.71,0,86.57v21.72l18.81,10.86ZM1,87.15,18.81,76.87,36.62,87.15v20.57L18.81,118,1,107.72Z" transform="translate(0 0)"/><path class="cls-2" d="M58.46,144.14V122.42L39.65,111.56,20.84,122.42v21.72L39.65,155ZM21.84,123l17.81-10.28L57.46,123v20.56L39.65,153.85,21.84,143.56Z" transform="translate(0 0)"/><path class="cls-2" d="M62.53,122.42v21.72L81.34,155l18.81-10.86V122.42L81.34,111.56Zm36.62,21.14L81.34,153.85,63.53,143.56V123l17.81-10.28L99.15,123Z" transform="translate(0 0)"/><path class="cls-2" d="M145.75,122.42v21.72L164.56,155l18.81-10.86V122.42l-18.81-10.86Zm36.62,21.14-17.81,10.29-17.81-10.29V123l17.81-10.28L182.37,123Z" transform="translate(0 0)"/><path class="cls-2" d="M229,122.42v21.72L247.78,155l18.81-10.86V122.42l-18.81-10.86Zm36.62,21.14-17.81,10.29L230,143.56V123l17.81-10.28L265.59,123Z" transform="translate(0 0)"/><path class="cls-2" d="M312.19,122.42v21.72L331,155l18.81-10.86V122.42L331,111.56Zm36.62,21.14L331,153.85l-17.81-10.29V123L331,112.72,348.81,123Z" transform="translate(0 0)"/><path class="cls-2" d="M395.41,122.42v21.72L414.22,155,433,144.14V122.42l-18.81-10.86ZM432,143.56l-17.81,10.29-17.81-10.29V123l17.81-10.28L432,123Z" transform="translate(0 0)"/><polygon class="cls-2" points="478.63 122.42 478.63 144.14 497.44 155 500 153.52 500 152.37 497.44 153.85 479.63 143.56 479.63 123 497.44 112.72 500 114.2 500 113.04 497.44 111.56 478.63 122.42"/><polygon class="cls-2" points="16.25 122.42 0 113.04 0 114.2 15.25 123 15.25 143.56 0 152.37 0 153.52 16.25 144.14 16.25 122.42"/><path class="cls-2" d="M458.31,158.44v21.72L477.12,191l18.81-10.86V158.44l-18.81-10.86Zm36.62,21.15-17.81,10.28-17.81-10.28V159l17.81-10.28L494.93,159Z" transform="translate(0 0)"/><path class="cls-2" d="M454.25,158.44l-18.81-10.86-18.81,10.86v21.72L435.44,191l18.81-10.86Zm-1,21.15-17.81,10.28-17.81-10.28V159l17.81-10.28L453.25,159Z" transform="translate(0 0)"/><path class="cls-2" d="M475.09,194.29l-18.81-10.86-18.81,10.86V216l18.81,10.86L475.09,216Zm-1,21.14-17.81,10.29-17.81-10.29V194.87l17.81-10.28,17.81,10.28Z" transform="translate(0 0)"/><path class="cls-2" d="M374.94,158.44v21.72L393.75,191l18.81-10.86V158.44l-18.81-10.86Zm36.62,21.15-17.81,10.28-17.81-10.28V159l17.81-10.28L411.56,159Z" transform="translate(0 0)"/><path class="cls-2" d="M333.26,158.44v21.72L352.06,191l18.81-10.86V158.44l-18.81-10.86Zm36.61,21.15-17.81,10.28-17.8-10.28V159l17.8-10.28L369.87,159Z" transform="translate(0 0)"/><path class="cls-2" d="M354.1,194.29V216l18.81,10.86L391.72,216V194.29l-18.81-10.86Zm36.62,21.14-17.81,10.29L355.1,215.43V194.87l17.81-10.28,17.81,10.28Z" transform="translate(0 0)"/><path class="cls-2" d="M291.8,158.44v21.72L310.61,191l18.81-10.86V158.44l-18.81-10.86Zm36.62,21.15-17.81,10.28L292.8,179.59V159l17.81-10.28L328.42,159Z" transform="translate(0 0)"/><path class="cls-2" d="M250.12,158.44v21.72L268.93,191l18.8-10.86V158.44l-18.8-10.86Zm36.61,21.15-17.8,10.28-17.81-10.28V159l17.81-10.28L286.73,159Z" transform="translate(0 0)"/><path class="cls-2" d="M271,194.29V216l18.81,10.86L308.58,216V194.29l-18.81-10.86Zm36.62,21.14-17.81,10.29L272,215.43V194.87l17.81-10.28,17.81,10.28Z" transform="translate(0 0)"/><path class="cls-2" d="M208.43,158.44v21.72L227.24,191l18.81-10.86V158.44l-18.81-10.86Zm36.62,21.15-17.81,10.28-17.81-10.28V159l17.81-10.28L245.05,159Z" transform="translate(0 0)"/><path class="cls-2" d="M166.74,158.44v21.72L185.55,191l18.81-10.86V158.44l-18.81-10.86Zm36.62,21.15-17.81,10.28-17.81-10.28V159l17.81-10.28L203.36,159Z" transform="translate(0 0)"/><path class="cls-2" d="M187.59,194.29V216l18.81,10.86L225.21,216V194.29L206.4,183.43Zm36.62,21.14L206.4,225.72l-17.81-10.29V194.87l17.81-10.28,17.81,10.28Z" transform="translate(0 0)"/><path class="cls-2" d="M125.06,158.44v21.72L143.87,191l18.81-10.86V158.44l-18.81-10.86Zm36.62,21.15-17.81,10.28-17.81-10.28V159l17.81-10.28L161.68,159Z" transform="translate(0 0)"/><path class="cls-2" d="M104.22,194.29V216L123,226.87,141.83,216V194.29L123,183.43Zm36.61,21.14L123,225.72l-17.8-10.29V194.87L123,184.59l17.81,10.28Z" transform="translate(0 0)"/><path class="cls-2" d="M83.37,158.44v21.72L102.18,191,121,180.16V158.44l-18.81-10.86ZM120,179.59l-17.81,10.28L84.37,179.59V159l17.81-10.28L120,159Z" transform="translate(0 0)"/><path class="cls-2" d="M41.69,180.16,60.5,191l18.8-10.86V158.44L60.5,147.58,41.69,158.44Zm1-21.14L60.5,148.74,78.3,159v20.57L60.5,189.87,42.69,179.59Z" transform="translate(0 0)"/><path class="cls-2" d="M37.62,180.16V158.44L18.81,147.58,0,158.44v21.72L18.81,191ZM1,159l17.81-10.28L36.62,159v20.57L18.81,189.87,1,179.59Z" transform="translate(0 0)"/><path class="cls-2" d="M58.46,216V194.29L39.65,183.43,20.84,194.29V216l18.81,10.86ZM21.84,194.87l17.81-10.28,17.81,10.28v20.56L39.65,225.72,21.84,215.43Z" transform="translate(0 0)"/><path class="cls-2" d="M62.53,194.29V216l18.81,10.86L100.15,216V194.29L81.34,183.43Zm36.62,21.14L81.34,225.72,63.53,215.43V194.87l17.81-10.28,17.81,10.28Z" transform="translate(0 0)"/><path class="cls-2" d="M145.75,194.29V216l18.81,10.86L183.37,216V194.29l-18.81-10.86Zm36.62,21.14-17.81,10.29-17.81-10.29V194.87l17.81-10.28,17.81,10.28Z" transform="translate(0 0)"/><path class="cls-2" d="M229,194.29V216l18.81,10.86L266.59,216V194.29l-18.81-10.86Zm36.62,21.14-17.81,10.29L230,215.43V194.87l17.81-10.28,17.81,10.28Z" transform="translate(0 0)"/><path class="cls-2" d="M312.19,194.29V216L331,226.87,349.81,216V194.29L331,183.43Zm36.62,21.14L331,225.72l-17.81-10.29V194.87L331,184.59l17.81,10.28Z" transform="translate(0 0)"/><path class="cls-2" d="M433,216V194.29l-18.81-10.86-18.81,10.86V216l18.81,10.86Zm-36.62-21.14,17.81-10.28L432,194.87v20.56l-17.81,10.29-17.81-10.29Z" transform="translate(0 0)"/><polygon class="cls-2" points="478.63 194.29 478.63 216.01 497.44 226.87 500 225.39 500 224.24 497.44 225.72 479.63 215.43 479.63 194.87 497.44 184.59 500 186.07 500 184.91 497.44 183.43 478.63 194.29"/><polygon class="cls-2" points="16.25 194.29 0 184.91 0 186.07 15.25 194.87 15.25 215.43 0 224.24 0 225.39 16.25 216.01 16.25 194.29"/><path class="cls-2" d="M458.31,230.32V252l18.81,10.86L495.93,252V230.32l-18.81-10.86Zm36.62,21.14-17.81,10.28-17.81-10.28V230.89l17.81-10.28,17.81,10.28Z" transform="translate(0 0)"/><path class="cls-2" d="M454.25,230.32l-18.81-10.86-18.81,10.86V252l18.81,10.86L454.25,252Zm-1,21.14-17.81,10.28-17.81-10.28V230.89l17.81-10.28,17.81,10.28Z" transform="translate(0 0)"/><path class="cls-2" d="M475.09,266.16,456.28,255.3l-18.81,10.86v21.72l18.81,10.86,18.81-10.86Zm-1,21.14-17.81,10.29L438.47,287.3V266.74l17.81-10.28,17.81,10.28Z" transform="translate(0 0)"/><path class="cls-2" d="M374.94,230.32V252l18.81,10.86L412.56,252V230.32l-18.81-10.86Zm36.62,21.14-17.81,10.28-17.81-10.28V230.89l17.81-10.28,17.81,10.28Z" transform="translate(0 0)"/><path class="cls-2" d="M333.26,230.32V252l18.8,10.86L370.87,252V230.32l-18.81-10.86Zm36.61,21.14-17.81,10.28-17.8-10.28V230.89l17.8-10.28,17.81,10.28Z" transform="translate(0 0)"/><path class="cls-2" d="M391.72,287.88V266.16L372.91,255.3,354.1,266.16v21.72l18.81,10.86ZM355.1,266.74l17.81-10.28,17.81,10.28V287.3l-17.81,10.29L355.1,287.3Z" transform="translate(0 0)"/><path class="cls-2" d="M291.8,230.32V252l18.81,10.86L329.42,252V230.32l-18.81-10.86Zm36.62,21.14-17.81,10.28L292.8,251.46V230.89l17.81-10.28,17.81,10.28Z" transform="translate(0 0)"/><path class="cls-2" d="M250.12,230.32V252l18.81,10.86L287.73,252V230.32l-18.8-10.86Zm36.61,21.14-17.8,10.28-17.81-10.28V230.89l17.81-10.28,17.8,10.28Z" transform="translate(0 0)"/><path class="cls-2" d="M308.58,287.88V266.16L289.77,255.3,271,266.16v21.72l18.81,10.86ZM272,266.74l17.81-10.28,17.81,10.28V287.3l-17.81,10.29L272,287.3Z" transform="translate(0 0)"/><path class="cls-2" d="M208.43,230.32V252l18.81,10.86L246.05,252V230.32l-18.81-10.86Zm36.62,21.14-17.81,10.28-17.81-10.28V230.89l17.81-10.28,17.81,10.28Z" transform="translate(0 0)"/><path class="cls-2" d="M166.74,230.32V252l18.81,10.86L204.36,252V230.32l-18.81-10.86Zm36.62,21.14-17.81,10.28-17.81-10.28V230.89l17.81-10.28,17.81,10.28Z" transform="translate(0 0)"/><path class="cls-2" d="M225.21,287.88V266.16L206.4,255.3l-18.81,10.86v21.72l18.81,10.86Zm-36.62-21.14,17.81-10.28,17.81,10.28V287.3L206.4,297.59,188.59,287.3Z" transform="translate(0 0)"/><path class="cls-2" d="M125.06,230.32V252l18.81,10.86L162.68,252V230.32l-18.81-10.86Zm36.62,21.14-17.81,10.28-17.81-10.28V230.89l17.81-10.28,17.81,10.28Z" transform="translate(0 0)"/><path class="cls-2" d="M141.83,287.88V266.16L123,255.3l-18.8,10.86v21.72L123,298.74Zm-36.61-21.14L123,256.46l17.81,10.28V287.3L123,297.59l-17.8-10.29Z" transform="translate(0 0)"/><path class="cls-2" d="M83.37,230.32V252l18.81,10.86L121,252V230.32l-18.81-10.86ZM120,251.46l-17.81,10.28L84.37,251.46V230.89l17.81-10.28L120,230.89Z" transform="translate(0 0)"/><path class="cls-2" d="M41.69,252,60.5,262.89,79.3,252V230.32L60.5,219.46,41.69,230.32Zm1-21.14L60.5,220.61l17.8,10.28v20.57L60.5,261.74,42.69,251.46Z" transform="translate(0 0)"/><path class="cls-2" d="M37.62,252V230.32L18.81,219.46,0,230.32V252l18.81,10.86ZM1,230.89l17.81-10.28,17.81,10.28v20.57L18.81,261.74,1,251.46Z" transform="translate(0 0)"/><path class="cls-2" d="M58.46,287.88V266.16L39.65,255.3,20.84,266.16v21.72l18.81,10.86ZM21.84,266.74l17.81-10.28,17.81,10.28V287.3L39.65,297.59,21.84,287.3Z" transform="translate(0 0)"/><path class="cls-2" d="M62.53,287.88l18.81,10.86,18.81-10.86V266.16L81.34,255.3,62.53,266.16Zm1-21.14,17.81-10.28,17.81,10.28V287.3L81.34,297.59,63.53,287.3Z" transform="translate(0 0)"/><path class="cls-2" d="M183.37,287.88V266.16L164.56,255.3l-18.81,10.86v21.72l18.81,10.86Zm-36.62-21.14,17.81-10.28,17.81,10.28V287.3l-17.81,10.29L146.75,287.3Z" transform="translate(0 0)"/><path class="cls-2" d="M266.59,287.88V266.16L247.78,255.3,229,266.16v21.72l18.81,10.86ZM230,266.74l17.81-10.28,17.81,10.28V287.3l-17.81,10.29L230,287.3Z" transform="translate(0 0)"/><path class="cls-2" d="M349.81,287.88V266.16L331,255.3l-18.81,10.86v21.72L331,298.74Zm-36.62-21.14L331,256.46l17.81,10.28V287.3L331,297.59,313.19,287.3Z" transform="translate(0 0)"/><path class="cls-2" d="M433,287.88V266.16L414.22,255.3l-18.81,10.86v21.72l18.81,10.86Zm-36.62-21.14,17.81-10.28L432,266.74V287.3l-17.81,10.29L396.41,287.3Z" transform="translate(0 0)"/><polygon class="cls-2" points="478.63 266.16 478.63 287.88 497.44 298.74 500 297.26 500 296.11 497.44 297.59 479.63 287.31 479.63 266.74 497.44 256.46 500 257.94 500 256.78 497.44 255.3 478.63 266.16"/><polygon class="cls-2" points="16.25 266.16 0 256.78 0 257.94 15.25 266.74 15.25 287.31 0 296.11 0 297.26 16.25 287.88 16.25 266.16"/><path class="cls-2" d="M458.31,302.19V323.9l18.81,10.86,18.81-10.86V302.19l-18.81-10.86Zm36.62,21.14-17.81,10.28-17.81-10.28V302.76l17.81-10.28,17.81,10.28Z" transform="translate(0 0)"/><path class="cls-2" d="M454.25,323.9V302.19l-18.81-10.86-18.81,10.86V323.9l18.81,10.86Zm-36.62-21.14,17.81-10.28,17.81,10.28v20.57l-17.81,10.28-17.81-10.28Z" transform="translate(0 0)"/><path class="cls-2" d="M475.09,359.75V338l-18.81-10.86L437.47,338v21.72l18.81,10.86Zm-36.62-21.14,17.81-10.28,17.81,10.28v20.57l-17.81,10.28-17.81-10.28Z" transform="translate(0 0)"/><path class="cls-2" d="M412.56,323.9V302.19l-18.81-10.86-18.81,10.86V323.9l18.81,10.86Zm-36.62-21.14,17.81-10.28,17.81,10.28v20.57l-17.81,10.28-17.81-10.28Z" transform="translate(0 0)"/><path class="cls-2" d="M370.87,323.9V302.19l-18.81-10.86-18.8,10.86V323.9l18.8,10.86Zm-36.61-21.14,17.8-10.28,17.81,10.28v20.57l-17.81,10.28-17.8-10.28Z" transform="translate(0 0)"/><path class="cls-2" d="M391.72,359.75V338l-18.81-10.86L354.1,338v21.72l18.81,10.86ZM355.1,338.61l17.81-10.28,17.81,10.28v20.57l-17.81,10.28L355.1,359.18Z" transform="translate(0 0)"/><path class="cls-2" d="M329.42,323.9V302.19l-18.81-10.86L291.8,302.19V323.9l18.81,10.86ZM292.8,302.76l17.81-10.28,17.81,10.28v20.57l-17.81,10.28L292.8,323.33Z" transform="translate(0 0)"/><path class="cls-2" d="M287.73,323.9V302.19l-18.8-10.86-18.81,10.86V323.9l18.81,10.86Zm-36.61-21.14,17.81-10.28,17.8,10.28v20.57l-17.8,10.28-17.81-10.28Z" transform="translate(0 0)"/><path class="cls-2" d="M308.58,359.75V338l-18.81-10.86L271,338v21.72l18.81,10.86ZM272,338.61l17.81-10.28,17.81,10.28v20.57l-17.81,10.28L272,359.18Z" transform="translate(0 0)"/><path class="cls-2" d="M246.05,323.9V302.19l-18.81-10.86-18.81,10.86V323.9l18.81,10.86Zm-36.62-21.14,17.81-10.28,17.81,10.28v20.57l-17.81,10.28-17.81-10.28Z" transform="translate(0 0)"/><path class="cls-2" d="M204.36,323.9V302.19l-18.81-10.86-18.81,10.86V323.9l18.81,10.86Zm-36.62-21.14,17.81-10.28,17.81,10.28v20.57l-17.81,10.28-17.81-10.28Z" transform="translate(0 0)"/><path class="cls-2" d="M225.21,359.75V338L206.4,327.17,187.59,338v21.72l18.81,10.86Zm-36.62-21.14,17.81-10.28,17.81,10.28v20.57L206.4,369.46l-17.81-10.28Z" transform="translate(0 0)"/><path class="cls-2" d="M162.68,323.9V302.19l-18.81-10.86-18.81,10.86V323.9l18.81,10.86Zm-36.62-21.14,17.81-10.28,17.81,10.28v20.57l-17.81,10.28-17.81-10.28Z" transform="translate(0 0)"/><path class="cls-2" d="M141.83,359.75V338L123,327.17,104.22,338v21.72L123,370.61Zm-36.61-21.14L123,328.33l17.81,10.28v20.57L123,369.46l-17.8-10.28Z" transform="translate(0 0)"/><path class="cls-2" d="M121,323.9V302.19l-18.81-10.86L83.37,302.19V323.9l18.81,10.86ZM84.37,302.76l17.81-10.28L120,302.76v20.57l-17.81,10.28L84.37,323.33Z" transform="translate(0 0)"/><path class="cls-2" d="M41.69,323.9,60.5,334.76,79.3,323.9V302.19L60.5,291.33,41.69,302.19Zm1-21.14L60.5,292.48l17.8,10.28v20.57L60.5,333.61,42.69,323.33Z" transform="translate(0 0)"/><path class="cls-2" d="M37.62,323.9V302.19L18.81,291.33,0,302.19V323.9l18.81,10.86ZM1,302.76l17.81-10.28,17.81,10.28v20.57L18.81,333.61,1,323.33Z" transform="translate(0 0)"/><path class="cls-2" d="M58.46,359.75V338L39.65,327.17,20.84,338v21.72l18.81,10.86ZM21.84,338.61l17.81-10.28,17.81,10.28v20.57L39.65,369.46,21.84,359.18Z" transform="translate(0 0)"/><path class="cls-2" d="M100.15,359.75V338L81.34,327.17,62.53,338v21.72l18.81,10.86ZM63.53,338.61l17.81-10.28,17.81,10.28v20.57L81.34,369.46,63.53,359.18Z" transform="translate(0 0)"/><path class="cls-2" d="M183.37,359.75V338l-18.81-10.86L145.75,338v21.72l18.81,10.86Zm-36.62-21.14,17.81-10.28,17.81,10.28v20.57l-17.81,10.28-17.81-10.28Z" transform="translate(0 0)"/><path class="cls-2" d="M266.59,359.75V338l-18.81-10.86L229,338v21.72l18.81,10.86ZM230,338.61l17.81-10.28,17.81,10.28v20.57l-17.81,10.28L230,359.18Z" transform="translate(0 0)"/><path class="cls-2" d="M349.81,359.75V338L331,327.17,312.19,338v21.72L331,370.61Zm-36.62-21.14L331,328.33l17.81,10.28v20.57L331,369.46l-17.81-10.28Z" transform="translate(0 0)"/><path class="cls-2" d="M433,359.75V338l-18.81-10.86L395.41,338v21.72l18.81,10.86Zm-36.62-21.14,17.81-10.28L432,338.61v20.57l-17.81,10.28-17.81-10.28Z" transform="translate(0 0)"/><polygon class="cls-2" points="478.63 338.03 478.63 359.75 497.44 370.61 500 369.13 500 367.98 497.44 369.46 479.63 359.18 479.63 338.61 497.44 328.33 500 329.81 500 328.65 497.44 327.18 478.63 338.03"/><polygon class="cls-2" points="16.25 338.03 0 328.65 0 329.81 15.25 338.61 15.25 359.18 0 367.98 0 369.13 16.25 359.75 16.25 338.03"/><path class="cls-2" d="M458.31,373.06v21.72l18.81,10.85,18.81-10.85V373.06L477.12,362.2Zm36.62,21.14-17.81,10.28L459.31,394.2V373.63l17.81-10.28,17.81,10.28Z" transform="translate(0 0)"/><path class="cls-2" d="M454.25,394.78V373.06L435.44,362.2l-18.81,10.86v21.72l18.81,10.85Zm-36.62-21.15,17.81-10.28,17.81,10.28V394.2l-17.81,10.28L417.63,394.2Z" transform="translate(0 0)"/><path class="cls-2" d="M475.09,407.91l-18.81-10.86-18.81,10.86v21.71l18.81,10.86,18.81-10.86Zm-1,21.14-17.81,10.28-17.81-10.28V408.48l17.81-10.28,17.81,10.28Z" transform="translate(0 0)"/><path class="cls-2" d="M412.56,394.78V373.06L393.75,362.2l-18.81,10.86v21.72l18.81,10.85Zm-36.62-21.15,17.81-10.28,17.81,10.28V394.2l-17.81,10.28L375.94,394.2Z" transform="translate(0 0)"/><path class="cls-2" d="M370.87,394.78V373.06L352.06,362.2l-18.8,10.86v21.72l18.8,10.85Zm-36.61-21.15,17.8-10.28,17.81,10.28V394.2l-17.81,10.28-17.8-10.28Z" transform="translate(0 0)"/><path class="cls-2" d="M391.72,407.91l-18.81-10.86L354.1,407.91v21.71l18.81,10.86,18.81-10.86Zm-1,21.14-17.81,10.28L355.1,429.05V408.48l17.81-10.28,17.81,10.28Z" transform="translate(0 0)"/><path class="cls-2" d="M329.42,394.78V373.06L310.61,362.2,291.8,373.06v21.72l18.81,10.85ZM292.8,373.63l17.81-10.28,17.81,10.28V394.2l-17.81,10.28L292.8,394.2Z" transform="translate(0 0)"/><path class="cls-2" d="M287.73,394.78V373.06l-18.8-10.86-18.81,10.86v21.72l18.81,10.85Zm-36.61-21.15,17.81-10.28,17.8,10.28V394.2l-17.8,10.28L251.12,394.2Z" transform="translate(0 0)"/><path class="cls-2" d="M308.58,407.91l-18.81-10.86L271,407.91v21.71l18.81,10.86,18.81-10.86Zm-1,21.14-17.81,10.28L272,429.05V408.48l17.81-10.28,17.81,10.28Z" transform="translate(0 0)"/><path class="cls-2" d="M246.05,394.78V373.06L227.24,362.2l-18.81,10.86v21.72l18.81,10.85Zm-36.62-21.15,17.81-10.28,17.81,10.28V394.2l-17.81,10.28L209.43,394.2Z" transform="translate(0 0)"/><path class="cls-2" d="M204.36,394.78V373.06L185.55,362.2l-18.81,10.86v21.72l18.81,10.85Zm-36.62-21.15,17.81-10.28,17.81,10.28V394.2l-17.81,10.28L167.74,394.2Z" transform="translate(0 0)"/><path class="cls-2" d="M225.21,407.91,206.4,397.05l-18.81,10.86v21.71l18.81,10.86,18.81-10.86Zm-1,21.14L206.4,439.33l-17.81-10.28V408.48L206.4,398.2l17.81,10.28Z" transform="translate(0 0)"/><path class="cls-2" d="M162.68,394.78V373.06L143.87,362.2l-18.81,10.86v21.72l18.81,10.85Zm-36.62-21.15,17.81-10.28,17.81,10.28V394.2l-17.81,10.28L126.06,394.2Z" transform="translate(0 0)"/><path class="cls-2" d="M141.83,407.91,123,397.05l-18.8,10.86v21.71L123,440.48l18.81-10.86Zm-1,21.14L123,439.33l-17.8-10.28V408.48L123,398.2l17.81,10.28Z" transform="translate(0 0)"/><path class="cls-2" d="M121,394.78V373.06L102.18,362.2,83.37,373.06v21.72l18.81,10.85ZM84.37,373.63l17.81-10.28L120,373.63V394.2l-17.81,10.28L84.37,394.2Z" transform="translate(0 0)"/><path class="cls-2" d="M41.69,394.78,60.5,405.63l18.8-10.85V373.06L60.5,362.2,41.69,373.06Zm1-21.15L60.5,363.35l17.8,10.28V394.2L60.5,404.48,42.69,394.2Z" transform="translate(0 0)"/><path class="cls-2" d="M37.62,394.78V373.06L18.81,362.2,0,373.06v21.72l18.81,10.85ZM1,373.63l17.81-10.28,17.81,10.28V394.2L18.81,404.48,1,394.2Z" transform="translate(0 0)"/><path class="cls-2" d="M58.46,407.91,39.65,397.05,20.84,407.91v21.71l18.81,10.86,18.81-10.86Zm-1,21.14L39.65,439.33,21.84,429.05V408.48L39.65,398.2l17.81,10.28Z" transform="translate(0 0)"/><path class="cls-2" d="M100.15,407.91,81.34,397.05,62.53,407.91v21.71l18.81,10.86,18.81-10.86Zm-1,21.14L81.34,439.33,63.53,429.05V408.48L81.34,398.2l17.81,10.28Z" transform="translate(0 0)"/><path class="cls-2" d="M183.37,407.91l-18.81-10.86-18.81,10.86v21.71l18.81,10.86,18.81-10.86Zm-1,21.14-17.81,10.28-17.81-10.28V408.48l17.81-10.28,17.81,10.28Z" transform="translate(0 0)"/><path class="cls-2" d="M266.59,407.91l-18.81-10.86L229,407.91v21.71l18.81,10.86,18.81-10.86Zm-1,21.14-17.81,10.28L230,429.05V408.48l17.81-10.28,17.81,10.28Z" transform="translate(0 0)"/><path class="cls-2" d="M349.81,407.91,331,397.05l-18.81,10.86v21.71L331,440.48l18.81-10.86Zm-1,21.14L331,439.33l-17.81-10.28V408.48L331,398.2l17.81,10.28Z" transform="translate(0 0)"/><path class="cls-2" d="M433,407.91l-18.81-10.86-18.81,10.86v21.71l18.81,10.86L433,429.62Zm-1,21.14-17.81,10.28-17.81-10.28V408.48l17.81-10.28L432,408.48Z" transform="translate(0 0)"/><polygon class="cls-2" points="478.63 407.9 478.63 429.62 497.44 440.48 500 439 500 437.85 497.44 439.33 479.63 429.05 479.63 408.48 497.44 398.2 500 399.68 500 398.53 497.44 397.05 478.63 407.9"/><polygon class="cls-2" points="16.25 407.9 0 398.53 0 399.68 15.25 408.48 15.25 429.05 0 437.85 0 439 16.25 429.62 16.25 407.9"/><path class="cls-2" d="M458.31,442.93v21.72l18.81,10.86,18.81-10.86V442.93l-18.81-10.86Zm36.62,21.14-17.81,10.28-17.81-10.28V443.5l17.81-10.28,17.81,10.28Z" transform="translate(0 0)"/><path class="cls-2" d="M416.63,442.93v21.72l18.81,10.86,18.81-10.86V442.93l-18.81-10.86Zm36.62,21.14-17.81,10.28-17.81-10.28V443.5l17.81-10.28,17.81,10.28Z" transform="translate(0 0)"/><path class="cls-2" d="M374.94,442.93v21.72l18.81,10.86,18.81-10.86V442.93l-18.81-10.86Zm36.62,21.14-17.81,10.28-17.81-10.28V443.5l17.81-10.28,17.81,10.28Z" transform="translate(0 0)"/><path class="cls-2" d="M333.26,442.93v21.72l18.8,10.86,18.81-10.86V442.93l-18.81-10.86Zm36.61,21.14-17.81,10.28-17.8-10.28V443.5l17.8-10.28,17.81,10.28Z" transform="translate(0 0)"/><path class="cls-2" d="M291.8,442.93v21.72l18.81,10.86,18.81-10.86V442.93l-18.81-10.86Zm36.62,21.14-17.81,10.28L292.8,464.07V443.5l17.81-10.28,17.81,10.28Z" transform="translate(0 0)"/><path class="cls-2" d="M250.12,442.93v21.72l18.81,10.86,18.8-10.86V442.93l-18.8-10.86Zm36.61,21.14-17.8,10.28-17.81-10.28V443.5l17.81-10.28,17.8,10.28Z" transform="translate(0 0)"/><path class="cls-2" d="M208.43,442.93v21.72l18.81,10.86,18.81-10.86V442.93l-18.81-10.86Zm36.62,21.14-17.81,10.28-17.81-10.28V443.5l17.81-10.28,17.81,10.28Z" transform="translate(0 0)"/><path class="cls-2" d="M166.74,442.93v21.72l18.81,10.86,18.81-10.86V442.93l-18.81-10.86Zm36.62,21.14-17.81,10.28-17.81-10.28V443.5l17.81-10.28,17.81,10.28Z" transform="translate(0 0)"/><path class="cls-2" d="M125.06,442.93v21.72l18.81,10.86,18.81-10.86V442.93l-18.81-10.86Zm36.62,21.14-17.81,10.28-17.81-10.28V443.5l17.81-10.28,17.81,10.28Z" transform="translate(0 0)"/><path class="cls-2" d="M83.37,442.93v21.72l18.81,10.86L121,464.65V442.93l-18.81-10.86ZM120,464.07l-17.81,10.28L84.37,464.07V443.5l17.81-10.28L120,443.5Z" transform="translate(0 0)"/><path class="cls-2" d="M41.69,442.93v21.72L60.5,475.51l18.8-10.86V442.93L60.5,432.07ZM78.3,464.07,60.5,474.35,42.69,464.07V443.5L60.5,433.22,78.3,443.5Z" transform="translate(0 0)"/><path class="cls-2" d="M37.62,464.65V442.93L18.81,432.07,0,442.93v21.72l18.81,10.86ZM1,443.5l17.81-10.28L36.62,443.5v20.57L18.81,474.35,1,464.07Z" transform="translate(0 0)"/><polygon class="cls-2" points="456.28 11.35 475.09 0.49 475.09 0 473.95 0 456.28 10.2 438.61 0 437.47 0 437.47 0.49 456.28 11.35"/><polygon class="cls-2" points="372.91 11.35 391.72 0.49 391.72 0 390.57 0 372.91 10.2 355.24 0 354.1 0 354.1 0.49 372.91 11.35"/><polygon class="cls-2" points="289.77 11.35 308.58 0.49 308.58 0 307.43 0 289.77 10.2 272.1 0 270.96 0 270.96 0.49 289.77 11.35"/><polygon class="cls-2" points="206.4 11.35 225.21 0.49 225.21 0 224.06 0 206.4 10.2 188.73 0 187.59 0 187.59 0.49 206.4 11.35"/><polygon class="cls-2" points="123.02 11.35 141.83 0.49 141.83 0 140.69 0 123.02 10.2 105.36 0 104.22 0 104.22 0.49 123.02 11.35"/><polygon class="cls-2" points="39.65 11.35 58.46 0.49 58.46 0 57.32 0 39.65 10.2 21.99 0 20.84 0 20.84 0.49 39.65 11.35"/><polygon class="cls-2" points="81.34 11.35 100.15 0.49 100.15 0 99 0 81.34 10.2 63.67 0 62.53 0 62.53 0.49 81.34 11.35"/><polygon class="cls-2" points="164.56 11.35 183.37 0.49 183.37 0 182.22 0 164.56 10.2 146.89 0 145.75 0 145.75 0.49 164.56 11.35"/><polygon class="cls-2" points="247.78 11.35 266.59 0.49 266.59 0 265.44 0 247.78 10.2 230.11 0 228.97 0 228.97 0.49 247.78 11.35"/><polygon class="cls-2" points="331 11.35 349.81 0.49 349.81 0 348.66 0 331 10.2 313.33 0 312.19 0 312.19 0.49 331 11.35"/><polygon class="cls-2" points="414.22 11.35 433.03 0.49 433.03 0 431.88 0 414.22 10.2 396.55 0 395.41 0 395.41 0.49 414.22 11.35"/><polygon class="cls-2" points="497.44 10.2 479.77 0 478.63 0 478.63 0.49 497.44 11.35 500 9.87 500 8.72 497.44 10.2"/><polygon class="cls-2" points="16.25 0 15.1 0 0 8.72 0 9.87 16.25 0.49 16.25 0"/><polygon class="cls-2" points="456.28 467.92 437.47 478.78 437.47 500 438.61 500 438.47 499.92 438.47 479.35 456.28 469.07 474.09 479.35 474.09 499.92 473.95 500 475.09 500 475.09 478.78 456.28 467.92"/><polygon class="cls-2" points="372.91 467.92 354.1 478.78 354.1 500 355.24 500 355.1 499.92 355.1 479.35 372.91 469.07 390.72 479.35 390.72 499.92 390.57 500 391.72 500 391.72 478.78 372.91 467.92"/><polygon class="cls-2" points="289.77 467.92 270.96 478.78 270.96 500 272.1 500 271.96 499.92 271.96 479.35 289.77 469.07 307.58 479.35 307.58 499.92 307.43 500 308.58 500 308.58 478.78 289.77 467.92"/><polygon class="cls-2" points="206.4 467.92 187.59 478.78 187.59 500 188.73 500 188.59 499.92 188.59 479.35 206.4 469.07 224.21 479.35 224.21 499.92 224.06 500 225.21 500 225.21 478.78 206.4 467.92"/><polygon class="cls-2" points="123.02 467.92 104.22 478.78 104.22 500 105.36 500 105.22 499.92 105.22 479.35 123.02 469.07 140.83 479.35 140.83 499.92 140.69 500 141.83 500 141.83 478.78 123.02 467.92"/><polygon class="cls-2" points="39.65 467.92 20.84 478.78 20.84 500 21.99 500 21.84 499.92 21.84 479.35 39.65 469.07 57.46 479.35 57.46 499.92 57.32 500 58.46 500 58.46 478.78 39.65 467.92"/><polygon class="cls-2" points="81.34 467.92 62.53 478.78 62.53 500 63.67 500 63.53 499.92 63.53 479.35 81.34 469.07 99.15 479.35 99.15 499.92 99 500 100.15 500 100.15 478.78 81.34 467.92"/><polygon class="cls-2" points="164.56 467.92 145.75 478.78 145.75 500 146.89 500 146.75 499.92 146.75 479.35 164.56 469.07 182.37 479.35 182.37 499.92 182.22 500 183.37 500 183.37 478.78 164.56 467.92"/><polygon class="cls-2" points="247.78 467.92 228.97 478.78 228.97 500 230.11 500 229.97 499.92 229.97 479.35 247.78 469.07 265.59 479.35 265.59 499.92 265.44 500 266.59 500 266.59 478.78 247.78 467.92"/><polygon class="cls-2" points="331 467.92 312.19 478.78 312.19 500 313.33 500 313.19 499.92 313.19 479.35 331 469.07 348.81 479.35 348.81 499.92 348.66 500 349.81 500 349.81 478.78 331 467.92"/><polygon class="cls-2" points="414.22 467.92 395.41 478.78 395.41 500 396.55 500 396.41 499.92 396.41 479.35 414.22 469.07 432.03 479.35 432.03 499.92 431.88 500 433.03 500 433.03 478.78 414.22 467.92"/><polygon class="cls-2" points="478.63 478.78 478.63 500 479.77 500 479.63 499.92 479.63 479.35 497.44 469.07 500 470.55 500 469.4 497.44 467.92 478.63 478.78"/><polygon class="cls-2" points="0 469.4 0 470.55 15.25 479.35 15.25 499.92 15.1 500 16.25 500 16.25 478.78 0 469.4"/></svg>