<svg xmlns="http://www.w3.org/2000/svg" preserveAspectRatio="xMinYMin meet" viewBox="0 0 1524.65 520.46"><defs><linearGradient id="honey-gradient" x1="0" y1="0" x2="0" y2="1"><stop offset="0%" stop-color="#ffe58f"/><stop offset="38%" stop-color="#ffd249"/><stop offset="72%" stop-color="#f5b800"/><stop offset="100%" stop-color="#d88f00"/></linearGradient><style>.cls-1{fill:url(#honey-gradient);}.cls-1,.cls-2{fill-rule:evenodd;}.cls-2{fill:#fff3c1;opacity:.52;}</style></defs><g id="Layer_2" data-name="Layer 2"><g id="Layer_1-2" data-name="Layer 1"><path class="cls-1" d="M0,0H1523.34c0,43.47,19.65,221.41-93.31,181.16-49.38-17.6-96.35-15.92-75,69.64s-62.19,159.17-130,36-90,75.71-199.94,23.54c-178.54-84.74-178.13,19-147.29,104.35,53,146.68-146.86,152.33-76-56.64,19.22-56.71-57.61-98.54-148.93-58.81C514.35,359.53,571,205.38,485,264.54c-199.08,136.88-130.39-145.7-241.25-71.28C61,315.91,24.11,118.18,0,0Z"/><path class="cls-2" d="M1377.26,150.16c20.18-2.59,42.28,3.1,60.41,9.56,11.65,4.16,27.37,7.78,38.39,0-7.4-.16-15-2.28-21.41-4.56-23.4-8.34-53.45-15.4-77.39-5Z"/><path class="cls-2" d="M1177.85,223.28l.66-.05c32-2.11,52.9,28,66.48,52.63,10,18.1,38.61,62.08,65.47,52.12a25.74,25.74,0,0,0,6.08-3.29c-23.34-2.69-46-37.73-54.57-53.39-13.58-24.67-34.5-54.75-66.48-52.63a50.62,50.62,0,0,0-17.64,4.61Z"/><path class="cls-2" d="M820.58,373.9c-9.57,31-17.53,73.06-5,102.41,4.6,10.75,14.3,23.07,27.47,21.22a19,19,0,0,0,10.13-4.87c-36.34-8.58-32.42-93.15-32.62-118.76Z"/><path class="cls-2" d="M683.36,265.4c23.31-5.22,47.57-6.34,70.78-1.37,25,5.35,49.4,18.44,62.91,40.25-4.68-59.73-90.06-59.75-133.69-38.88Z"/><path class="cls-2" d="M512.2,228.33a43.14,43.14,0,0,1,26.44,5c11.81,6.52,18.75,17.25,25.21,28.63,3.95,7,8.24,15.38,13.83,21.15,11.48,11.83,32.16,7.9,49.07,2.07-12.23,2.16-24.29,1.41-32.09-6.64-5.59-5.76-9.88-14.17-13.83-21.14-6.46-11.38-13.4-22.11-25.22-28.63-14.34-7.9-29.41-6.14-43.41-.43Z"/><path class="cls-2" d="M269.43,158.27a51,51,0,0,1,28.39,4.08c28,12.79,39.59,49.32,51.72,75.34,5.65,12.13,13.64,27.89,24.68,36,12.17,8.9,29.21,6.91,46.15.73-10.9,1.71-21.11.6-29.18-5.29-11-8.07-19-23.83-24.67-36-12.13-26-23.73-62.55-51.72-75.34-15.28-7-30.86-5.28-45.37.48Z"/><path class="cls-2" d="M27.91,22.76c4.21,20.11,8.7,40.16,14.18,60,10.68,38.66,30.69,97.85,68.17,118.5,20.44,11.26,43.88,9.23,66.22,1.61-16.95,3.24-33.94,2.26-49.24-6.17C62.48,161,63.94,38.24,27.91,22.76Z"/></g></g></svg>