<svg xmlns="http://www.w3.org/2000/svg" preserveAspectRatio="xMinYMin meet" viewBox="0 0 305.24 819.73"><defs><linearGradient id="honey-gradient" x1="0" y1="0" x2="0" y2="1"><stop offset="0%" stop-color="#ffe58f"/><stop offset="38%" stop-color="#ffd249"/><stop offset="72%" stop-color="#f5b800"/><stop offset="100%" stop-color="#d88f00"/></linearGradient><style>.cls-1{fill:url(#honey-gradient);}.cls-1,.cls-2{fill-rule:evenodd;}.cls-2{fill:#fff3c1;opacity:.52;}</style></defs><g id="Layer_2" data-name="Layer 2"><g id="Layer_1-2" data-name="Layer 1"><path class="cls-1" d="M97,788.38c34.83,52.19,145.43,47,137.45-75.82C231.56,668,208.9,601.46,194,526.17,156.57,336.78,129.55,91.77,305.24,0H0C41.56,140,182.89,28.09,107.11,520.2,88.68,639.88,54.64,724.91,97,788.38Z"/><path class="cls-2" d="M135.63,482.82q-2.88,20.52-6,40.84c-7.15,46.46-18.16,92.08-25.45,138.35-4.68,29.64-8.53,65,1.79,93.85a90.41,90.41,0,0,0,10,19.89,41.27,41.27,0,0,0,4.12,5.2c12.3,13.2,32.51,18.68,50.15,14.76A51.42,51.42,0,0,1,143.27,781a40.38,40.38,0,0,1-4.12-5.2,90.88,90.88,0,0,1-10-19.89c-10.32-28.87-6.47-64.21-1.79-93.85,5.67-36,18.52-143.25,8.27-179.19Z"/><path class="cls-2" d="M34.15,22.76C42.22,36.51,52.7,47.55,66.79,60.37c15.07,13.7,29.13,26.22,41.38,42.74,16.78,22.65,26.92,48.07,33.33,75.4A355.13,355.13,0,0,1,148.07,216C157.3,142.46,141,106.79,90,60.37,61.82,34.73,49.27,30.68,34.15,22.76Z"/></g></g></svg>