<svg xmlns="http://www.w3.org/2000/svg" preserveAspectRatio="xMinYMin meet" viewBox="0 0 305.24 492.82"><defs><linearGradient id="honey-gradient" x1="0" y1="0" x2="0" y2="1"><stop offset="0%" stop-color="#ffe58f"/><stop offset="38%" stop-color="#ffd249"/><stop offset="72%" stop-color="#f5b800"/><stop offset="100%" stop-color="#d88f00"/></linearGradient><style>.cls-1{fill:url(#honey-gradient);}.cls-1,.cls-2{fill-rule:evenodd;}.cls-2{fill:#fff3c1;opacity:.52;}</style></defs><g id="Layer_2" data-name="Layer 2"><g id="Layer_1-2" data-name="Layer 1"><path class="cls-1" d="M97,461.48c46.1,69.07,224.94,37.73,85.86-234.12C137.16,138,210.56,49.45,305.24,0H0C277.17,146.3-13.13,296.49,97,461.48Z"/><path class="cls-2" d="M132.06,233.1c-5.72,17.79-12.33,35.3-18.38,52.5-19.89,56.58-33.75,109.31,2.25,163.24,10.94,16.39,32.07,23.61,51.23,20.43-13.26-2.17-25.66-9.12-33.21-20.43-22.65-33.93-25.56-67.39-19.65-101.64,7.08-41.05,21.29-77.59,17.76-114.1Z"/><path class="cls-2" d="M77.22,22.76C102.08,43,123,66.93,135.15,95.8c11.11-33.57-28.76-73-57.93-73Z"/></g></g></svg>