<svg xmlns="http://www.w3.org/2000/svg" preserveAspectRatio="xMinYMin meet" viewBox="0 0 1419.74 694.06"><defs><linearGradient id="honey-gradient" x1="0" y1="0" x2="0" y2="1"><stop offset="0%" stop-color="#ffe58f"/><stop offset="38%" stop-color="#ffd249"/><stop offset="72%" stop-color="#f5b800"/><stop offset="100%" stop-color="#d88f00"/></linearGradient><style>.cls-1{fill:url(#honey-gradient);}.cls-1,.cls-2{fill-rule:evenodd;}.cls-2{fill:#fff3c1;opacity:.52;}</style></defs><g id="Layer_2" data-name="Layer 2"><g id="Layer_1-2" data-name="Layer 1"><path class="cls-1" d="M46.24,0H1401.43c-56.85,63.83-12.76,123.34,8.67,182.83,33.32,92.48-28.26,76.08-55.79,51.75-57.45-50.78-92.44-12.59-75.48,33,53.71,144.43-113.44,153-102.91,39.3,12.77-138-65-142.37-46.33-6.88,11.64,84.45,62.73,288-20,282.62-105.12-6.83,20.5-294-72.41-393.09-60.46-64.48-93-2.37-75.58,51.74,89.42,277.47-83,282.28-89.75,59.22-1.93-63.8-70.2-105.38-62.22,35.29C815.2,433.17,828,575.24,746.19,587c-179.5,25.8,47.65-297.52-47.26-341.71-22.32-10.39-63.82,17.82-68.2,65.42-17.4,189.36-137.46,277.15-135.44-67.41.33-56.63-80.39-51.73-76.28,36.27,7.06,151-68.27,151-70.22,95.75-4.49-126.39-46-97.6-68.48-37.64-23.68,63.24-1.72,111.12,4.3,217.61,6.86,121.42-54.44,161.59-88.05,126.64-88.87-92.4,1.56-224.07,3.72-322.54,1.58-71.8-44.5-112.79-90.3,17C84,450,21.36,431.68,3.46,366-17.91,287.61,67.55,163.29,46.24,0Z"/><path class="cls-2" d="M1306.07,187.7a66.37,66.37,0,0,1,12.16,1.39c19.12,4,36.72,15.68,51.15,28.44,4.94,4.37,19.57,13.58,27.41,13.4.81-5.29-4.5-9.53-11.18-15.43-14.43-12.76-32-24.46-51.15-28.44a59.78,59.78,0,0,0-28.39.64Z"/><path class="cls-2" d="M1153.57,178.28c20.92,2.29,33.3,23.24,39.12,41.89,8.54,27.37,8.5,60.53,5.89,88.8-1.39,15,.75,31.93,11.78,43.13a33.26,33.26,0,0,0,27.8,9.75,30.5,30.5,0,0,0,7.78-2.06,33.65,33.65,0,0,1-19.36-9.72c-11-11.2-13.16-28.15-11.78-43.12,2.62-28.28,2.66-61.44-5.89-88.81-6.3-20.19-20.29-43.09-44.5-42.07a34.09,34.09,0,0,0-10.84,2.21Z"/><path class="cls-2" d="M1095.42,367.76l-.32,5.55c-2.44,40.57-7.52,82.12-7.57,122.67,0,14.27.64,50.51,13.15,60.5,3,2.37,6.71,3.19,10.43,3.43,2.9.19,6.15,0,8.64-1.65a11.8,11.8,0,0,0,1.72-1.41,14.32,14.32,0,0,1-4.57-2.4c-12.5-10-13.16-46.23-13.14-60.5.06-54.58,1.68-116.39-8.34-126.19Z"/><path class="cls-2" d="M992.47,139.22c23.37,1,45.55,17.89,61.35,34.75,14.61,15.58,24.49,34.66,31.06,55.47,7.24-15.11-1.93-43.74-14.83-57.5-19.43-20.72-48.49-41.53-77.58-32.72Z"/><path class="cls-2" d="M839.76,218.83c16.41,1.47,30.1,13.38,38.85,26.95,10.18,15.8,15.46,35.32,16,54,1.09,36,7.36,80.11,25.62,111.85,3.66,6.36,17.55,26.54,26.92,24.87,2.53-.45,5.08-3.57,6.56-5.78-7.39-5.85-14.73-16.75-17.25-21.11-18.27-31.74-24.54-75.87-25.62-111.86-.56-18.7-5.84-38.22-16-54-9.82-15.24-25.88-28.39-45-27a38.66,38.66,0,0,0-10,2.08Z"/><path class="cls-2" d="M690.09,220.38a46.25,46.25,0,0,1,18.44,4.29,60,60,0,0,1,20.14,15.08c19.58,22.57,19,55.89,15.07,83.73-4.54,32.41-14.26,65.32-23.13,96.81-7.11,25.2-35.56,116.25-16.67,138.29,7.95,9.27,28.58,7.41,39,5.91,1.55-.23,3.06-.52,4.54-.89-10.11.46-21.79-.59-27.32-7.05-18.9-22,9.56-113.09,16.66-138.29,8.88-31.49,18.6-64.4,23.13-96.8,3.9-27.85,4.51-61.17-15.06-83.74a60,60,0,0,0-20.14-15.08c-11.21-5.22-23.25-5.34-34.67-2.26Z"/><path class="cls-2" d="M465.59,183.34a52.69,52.69,0,0,1,17.16,3.35c23.88,9,35.44,32.25,35.3,56.75-.2,33.44.64,67.18,3.75,100.49,2.09,22.43,5.21,45.61,10.92,67.44,3,11.6,7.51,25.65,14.17,35.75,1.08,1.63,5,6.92,7.07,7.44,2.63-.09,8.2-5.59,10.27-7.9-7.36-10-12.15-25.37-15.28-37.32-5.71-21.82-8.83-45-10.92-67.44-3.11-33.31-4-67-3.76-100.49.14-24.5-11.41-47.79-35.29-56.75a53.59,53.59,0,0,0-33.39-1.32Z"/><path class="cls-2" d="M323.84,264c35.57,3.6,44.11,54.2,46.65,89.73.47,6.55.19,27.55,4,32.28,14.38-9.27,9.84-61,6-76.13-6.18-24.38-17.9-45.71-40.61-47.93a36.27,36.27,0,0,0-16.09,2Z"/><path class="cls-2" d="M172.49,269.31a44.09,44.09,0,0,1,6.91,1.11c36.18,8.83,44.32,58.4,43.63,89.48-1,44-16.83,90.57-28.1,133-15.79,59.34-29.1,124.3,18,173.31,2.38,2.47,5.43,4.68,8.93,5.07,3.88.43,7.71-1.23,11.21-3.87a20,20,0,0,1-3.91-3.23c-47.13-49-33.82-114-18-173.31,11.28-42.38,27.14-89,28.11-133,.69-31.08-7.45-80.65-43.63-89.48a41.07,41.07,0,0,0-23.14.92Z"/><path class="cls-2" d="M71.38,22.76c4.76,68-7.06,131-24.53,197.84-7.1,27.12-15.24,54.7-20.35,82.25-3.31,17.88-5.94,39.34-1.09,57.16C29.32,374.32,42,401.23,60.16,401.2A17,17,0,0,0,69.77,398c-14.58-5.38-24.72-27.49-28.13-40-4.86-17.82-2.22-39.28,1.09-57.16,5.1-27.55,13.25-55.13,20.34-82.25,8-30.6,33.68-138.15,8.31-195.81Z"/></g></g></svg>