<svg xmlns="http://www.w3.org/2000/svg" preserveAspectRatio="xMinYMin meet" viewBox="0 0 1240.86 230.83"><defs><linearGradient id="honey-gradient" x1="0" y1="0" x2="0" y2="1"><stop offset="0%" stop-color="#ffe58f"/><stop offset="38%" stop-color="#ffd249"/><stop offset="72%" stop-color="#f5b800"/><stop offset="100%" stop-color="#d88f00"/></linearGradient><style>.cls-1{fill:url(#honey-gradient);}.cls-1,.cls-2{fill-rule:evenodd;}.cls-2{fill:#fff3c1;opacity:.52;}</style></defs><g id="Layer_2" data-name="Layer 2"><g id="Layer_1-2" data-name="Layer 1"><path class="cls-1" d="M0,0C15.62,135.92,108.51,103,218.71,107.05c103.39,3.81,192.66,89.73,284.62,68.07,20.4-4.8,62.44-36.3,102.52-56.77,80.22-40.95,82-7.16,98.74,36.11,31,80.2,133.94,122.88,150.16-3.68,5.52-43,53.46-107.82,130.71-39.83,86.36,76,255.78,11.48,255.4-110.95Z"/><path class="cls-2" d="M932,59.29c24.51,3.21,48.36,16.9,68.45,34.58,24,21.1,55.85,29.11,87.8,26.73-24.48-1.86-47.87-10.35-66.48-26.73-25.89-22.79-58-38.94-89.77-34.58Z"/><path class="cls-2" d="M671.77,78a49.17,49.17,0,0,1,21.55,9.08c18.57,13.82,24.55,38.61,32.5,59.19,7.17,18.56,19.69,36.39,35.54,48.55,10,7.68,24.73,15.35,37.79,12.76a23.43,23.43,0,0,0,4.54-1.38,71,71,0,0,1-21-11.38c-15.85-12.16-28.37-30-35.54-48.55-7.95-20.58-13.93-45.37-32.5-59.19-12.71-9.46-27.7-11.25-42.87-9.08Z"/><path class="cls-2" d="M209.23,84c3.44.06,6.87.14,10.32.27C254,85.58,286.85,95,318.88,107.16c27.28,10.32,53.8,22.59,81.14,32.72,22.65,8.4,47.18,15.77,71.52,16,3.84,0,7.68-.12,11.49-.46-46.81-3.89-93.34-41.31-137.39-58C296.92,79,260.14,83.37,209.23,84Z"/><path class="cls-2" d="M26.91,22.76c4.8,20,13.67,39.45,31.28,49.95,18,10.71,43.64,12.09,64.05,12.33,6.29.08,12.57,0,18.84,0C69.88,76.12,39.67,33.71,26.91,22.76Z"/></g></g></svg>