<svg xmlns="http://www.w3.org/2000/svg" preserveAspectRatio="xMinYMin meet" viewBox="0 0 305.24 682.26"><defs><linearGradient id="honey-gradient" x1="0" y1="0" x2="0" y2="1"><stop offset="0%" stop-color="#ffe58f"/><stop offset="38%" stop-color="#ffd249"/><stop offset="72%" stop-color="#f5b800"/><stop offset="100%" stop-color="#d88f00"/></linearGradient><style>.cls-1{fill:url(#honey-gradient);}.cls-1,.cls-2{fill-rule:evenodd;}.cls-2{fill:#fff3c1;opacity:.52;}</style></defs><g id="Layer_2" data-name="Layer 2"><g id="Layer_1-2" data-name="Layer 1"><path class="cls-1" d="M170.9,216.47C194.42-5,305.84,148.14,305.24,0H0C15.11,317,109.68,3.84,125.12,216.47c12.35,138.61-1.57,201.35-24.34,287.54C60.83,655.2,123.32,681,158.66,682.23c38.25,1.38,105.49-39.9,56.15-171.1C189.94,445,153.72,413.94,170.9,216.47Z"/><path class="cls-2" d="M137.89,447.48c-4.39,20.93-9.65,41.67-15.11,62.35C112.24,549.72,89.69,657,159.48,659.49a37,37,0,0,0,8.48-.7c-60.9-9.56-39.61-110.52-29.45-149,7.31-27.66,3.92-54.19-.62-62.35Z"/><path class="cls-2" d="M100.65,113.84c46.58,8.71,47.38,103,47.58,100.66,3.68-37.27,15.32-111.9-47.58-100.66Z"/><path class="cls-2" d="M24,22.76c1.67,26.7,4.46,54.92,10.52,79.6,5,20.43,16.45,23,23.23,21.86-3.47-6.94-6.56-18.06-7.5-21.86-8.48-34.49-9.66-75-26.25-79.6Z"/></g></g></svg>