<svg xmlns="http://www.w3.org/2000/svg" preserveAspectRatio="xMinYMin meet" viewBox="0 0 1469.45 622.19"><defs><linearGradient id="honey-gradient" x1="0" y1="0" x2="0" y2="1"><stop offset="0%" stop-color="#ffe58f"/><stop offset="38%" stop-color="#ffd249"/><stop offset="72%" stop-color="#f5b800"/><stop offset="100%" stop-color="#d88f00"/></linearGradient><style>.cls-1{fill:url(#honey-gradient);}.cls-1,.cls-2{fill-rule:evenodd;}.cls-2{fill:#fff3c1;opacity:.52;}</style></defs><g id="Layer_2" data-name="Layer 2"><g id="Layer_1-2" data-name="Layer 1"><path class="cls-1" d="M0,121.8C0,269.27,126.2,243.28,54.11,386.2c-83.77,166.08,133,180.77,81.45,25.86C106.82,325.77,157.68,286,216.1,237.8c40.63-33.5,67.58,34.92,76.81,75.41,44.89,197-8.67,212.56-6.6,271.53,1.76,50.52,86.59,64.8,59-53.2-14.06-60.09-19.06-126.66-11.15-151.95,18.65-59.66,17.46-91.76,79.45-61,24.91,12.36,59.48,24.09,129.46-17,59.36-34.84,115,74.16,63.93,165.52-32.18,57.56-3.22,119,29.59,119.09,41,.16,70.09-67.34,20.31-129.07-19.63-24.33-12.52-88-13.11-113-.56-23.66,6.49-47.23,40.88-51,57.48-6.25,23.5-27.07,130.26-2.41,85.28,19.7,79.77-54.29,143.05-66.49,24.2-4.66,53.56,8.29,69.3,72.18,16.55,67.14-14.92,96.61-25.65,134.87-30.28,108.07,91.07,132,90.21,29.68-.5-60.16-77.41-84,6.55-215,26.3-41-22-105.63,70.35-69.85,79.54,30.82,40.9-115.29,132.39-74.14,86.9,39.09,116.74,94.94,83.58,178.15C1327,424.94,1320.21,525.66,1406.39,522c42.59-1.8,78.79-47.9,20.85-142.18-37.84-61.59,24.55-156.63,20.63-250.83-1.79-43.1-13.37-77,21.58-129L5.8,23.2,0,121.8Z"/><path class="cls-2" d="M1374.18,493.87c10.56,9.72,33.75,11.2,46.53,4.56.51-.26,1-.54,1.48-.82-10.44.31-22.29-1.14-30.25-8.48-21.84-20.1-10.27-110.34-2-137.27-18.08,32.36-49.38,111.07-15.78,142Z"/><path class="cls-2" d="M1043.29,381.17c-6,17.05-14.74,32.36-20.68,49.2-.73,2.07-1.41,4.15-2,6.26-15.66,55.89,18.27,82,38.25,64.83-53.45-27.49-6.57-76.45-15.57-120.29Z"/><path class="cls-2" d="M633.78,456.8a178.2,178.2,0,0,1-9.57,19.95c-11,19.66-15.08,43.66-8,65.38,2.44,7.51,10.76,24.33,20.48,24.37a17,17,0,0,0,4.91-.69,21.85,21.85,0,0,0,8.71-5c-7.88-3.73-14.25-16.94-16.34-23.37-15.4-31.47,7.64-61.67-.15-80.59Z"/><path class="cls-2" d="M322,517.11q-1.86,7.17-4.11,14.34c-3.27,10.46-7.24,21-9.73,31.7a78.66,78.66,0,0,0-2.18,20.9,21,21,0,0,0,6.05,14.47c2.14,2.09,5.57,4.2,8.7,3.93,4-.34,6.43-5.74,7.54-8.92-18.12-11.6-6.29-66.62-6.27-76.42Z"/><path class="cls-2" d="M1267.22,75.15c14-1.2,28.54,2.84,42,8.89,42,18.9,84,47.08,100.81,92a121.09,121.09,0,0,1,7.5,37.92c2.71-11.48,5.18-23,7.09-34.7,3-18.22-5.79-29.13-17.46-43.34-20.79-25.29-50.47-43.29-80.19-56.66-19.24-8.65-40.64-13.19-59.74-4.15Z"/><path class="cls-2" d="M1125.16,146.15c17.22-.91,36.65,6.18,50.69,11.62,5,1.92,13.53,4.77,18.58,1.45a19.05,19.05,0,0,0,4.38-4.41c-1.93-.55-3.72-1.21-5.2-1.78-19.21-7.44-48.51-18-68.45-6.88Z"/><path class="cls-2" d="M956.31,204.53c19.2-3.09,37.54,2.39,52.37,15.18,20.51,17.69,31.43,46.4,37.74,72q1.17,4.72,2.09,9.39c5-18.24,9.1-58.36-22.07-86.14-20.87-18-45.26-19.7-70.13-10.44Z"/><path class="cls-2" d="M734,259.89a93.76,93.76,0,0,1,18.65-.3c21.73,1.51,45.57,7.05,66.76,12,16,3.7,30.11,4.66,43.43-2-8.08.56-16.56-.66-25.68-2.77-21.19-4.89-45-10.44-66.75-12-12.27-.85-22.73-.14-34.3,4.22-.7.26-1.41.54-2.11.82Z"/><path class="cls-2" d="M559.23,275.63a58.91,58.91,0,0,1,17.5.61c22.57,4.21,39.46,20.13,50.89,39.51.9-14.87-4.77-38.17-33.13-44.25a61.16,61.16,0,0,0-35.26,4.13Z"/><path class="cls-2" d="M373.37,287.09c16.79-.89,34.49,6.63,49,13.82,12.71,6.31,24,10,38.43,9.5,10.2-.32,20.73-2.69,31.05-6.21a89.49,89.49,0,0,1-13.29,1.48c-14.4.46-25.73-3.2-38.44-9.5-19.78-9.82-45.5-20.23-66.75-9.09Z"/><path class="cls-2" d="M234.7,209.2a44,44,0,0,1,11.47.82c38.46,7.85,58.23,64.85,66,98.81,3.26,14.32,6.41,29.25,9.15,44.49,15.5-54.39-8.51-127.55-57.36-148a45.62,45.62,0,0,0-29.23,3.91Z"/><path class="cls-2" d="M88.38,356a287.36,287.36,0,0,1-16.66,39.12C60,418.32,47.18,454.13,59,479.74c6,12.94,18.4,21.37,32.86,20.46a31,31,0,0,0,14.69-4.69C93.45,495.14,82.35,487,76.79,475c-20.67-41.24,17.45-79.59,11.59-119Z"/><path class="cls-2" d="M56.13,195.56C36.75,161,32,85.88,24.41,42.63,22,83.39,3.86,184.91,56.13,195.56Z"/></g></g></svg>