<svg xmlns="http://www.w3.org/2000/svg" preserveAspectRatio="xMinYMin meet" viewBox="0 0 1000.57 686.65"><defs><linearGradient id="honey-gradient" x1="0" y1="0" x2="0" y2="1"><stop offset="0%" stop-color="#ffe58f"/><stop offset="38%" stop-color="#ffd249"/><stop offset="72%" stop-color="#f5b800"/><stop offset="100%" stop-color="#d88f00"/></linearGradient><style>.cls-1{fill:url(#honey-gradient);}.cls-1,.cls-2{fill-rule:evenodd;}.cls-2{fill:#fff3c1;opacity:.52;}</style></defs><g id="Layer_2" data-name="Layer 2"><g id="Layer_1-2" data-name="Layer 1"><path class="cls-1" d="M816.34,223c-15.88,78-21.84,179.58-3.68,274.89C842.52,654.51,750,706,678.57,680.38c-122.21-43.9-58-179.75-39-264.45,23-102.76,36.13-221.19-40.46-186.44-30.85,14-71.81,139.48-109.3-8.43-26.57-104.87-114.72,6.48-46.55,135.79,91.31,173.2-144.52,233.7-121.34,13.1C334,254.25,329.28,108.18,247,166.41c-85.8,60.75,10.42,219.41-99.92,208.44-120-11.92,46.22-238.94-56.27-251.55C48.14,118-14.13,41.43,2.87,0h997.7C930.78,53.84,835.34,129.67,816.34,223Z"/><path class="cls-2" d="M633.47,201.51a47.59,47.59,0,0,1,16.39,6.41c26.32,16.38,30.32,53.31,30.26,81.41-.07,35.52-6.34,73.34-13.38,108.12q-2.37,11.74-5,23.44c-6.77,30.31-16.74,60-24,90.26-7.56,31.48-15.33,74-2.15,104.9,9.5,22.27,28.48,34.94,50.66,42.91a81.85,81.85,0,0,0,36.47,4.47l1.87-.23A83.86,83.86,0,0,1,707.15,659C685,651,666,638.32,656.49,616.05c-13.18-30.89-5.41-73.42,2.15-104.9,7.26-30.26,17.23-59.95,24-90.26q2.61-11.68,5-23.44c7-34.78,13.31-72.6,13.38-108.12.06-28.1-3.94-65-30.25-81.41-11.68-7.27-24.6-8.55-37.29-6.41Z"/><path class="cls-2" d="M468.39,158c24.76,6.22,37.58,34.33,43.45,57.49,1.53,6,6.37,23.63,12,37.44,4,9.94,15.27,9.65,21.77,1.76-4.48-7.46-10.45-29.75-12.85-39.2-6.61-26.11-22.06-58.51-53.49-58.75A43.48,43.48,0,0,0,468.39,158Z"/><path class="cls-2" d="M290.51,131.42c66.57,13.58,60.7,145.49,57.7,196.14q-1.32,22.43-3.69,44.76c-3.18,30.29-2.5,70.7,15.71,96.79,9.19,13.16,22.92,22,39.4,20.28a41.07,41.07,0,0,0,6.54-1.23c-10.13-2.9-18.68-9.93-25.05-19.05-18.21-26.09-18.89-66.5-15.71-96.79q2.34-22.33,3.69-44.76c3-51.51,9.15-212.69-78.59-196.14Z"/><path class="cls-2" d="M132.78,119.68c29.31,32.61,10.88,95.39,2.16,133.24-4.44,19.29-18.24,73.63-5.43,90.87,5.87,7.92,24.92,10.72,37,8-36.52-7.09-15.57-77.51-10.66-98.84,6.68-29,18.89-72.31,11.43-105.61-3.23-14.42-20-32.46-34.48-27.63Z"/><path class="cls-2" d="M23.34,22.76C26.81,39.92,38.21,73,73.63,73.48,49,54.94,59.81,30.93,23.34,22.76Z"/></g></g></svg>